<?xml version="1.0"?>
<svg xmlns="http://www.w3.org/2000/svg" xmlns:xlink="http://www.w3.org/1999/xlink" version="1.1" viewBox="0 0 192 192"><g transform=""><g fill="none" fill-rule="nonzero" stroke="none" stroke-width="1" stroke-linecap="butt" stroke-linejoin="miter" stroke-miterlimit="10" stroke-dasharray="" stroke-dashoffset="0" font-family="none" font-weight="none" font-size="none" text-anchor="none" style="mix-blend-mode: normal"><path d="M0,192v-192h192v192z" fill="none"/><g><g id="surface1"><path d="M152,176h-104v-160h104c8.79688,0 16,7.20312 16,16v128c0,8.79688 -7.20312,16 -16,16z" fill="#e67e22"/><path d="M40,16h8v160h-8c-8.79688,0 -16,-7.20312 -16,-16v-128c0,-8.79688 7.20312,-16 16,-16z" fill="#e74c3c"/><path d="M144,96.79688c-0.40625,19.20312 -12.40625,27.60938 -21.20312,26.79688c-2.39062,-0.39063 -8.39062,-0.39063 -11.59375,-6.39063c-3.20312,4 -7.20312,6.39063 -12.40625,6.39063c-10.39062,0 -13.20312,-10 -13.59375,-12.39063c-0.40625,-2.79687 -0.79687,-5.60937 -0.40625,-8.79687c0.40625,-4 4.40625,-26 22.79688,-26c8.8125,0 14,4.39062 14.8125,5.1875l-2.40625,27.20312c0,1.20312 -0.79688,6.40625 4.40625,6.40625c8.39062,0 9.59375,-15.60937 9.59375,-18.40625c0.40625,-4.79688 1.20312,-32.79688 -28,-32.79688c-27.59375,0 -31.59375,29.59375 -32,36.79688c-2,34 24,34 28.79688,34c6.79688,0 14.79688,-2.79688 15.60938,-3.20312l1.59375,8c-1.20312,0.8125 -8,4.40625 -17.59375,4.40625c-8.8125,0 -40.40625,-1.59375 -39.20313,-43.20312c1.20313,-8.39062 6.39063,-44.79688 43.20313,-44.79688c36.79687,0 37.59375,32.40625 37.59375,40.79688zM96.40625,102c-0.40625,4 0,7.20312 0.79687,9.20312c0.79688,2 2.39063,3.20313 4.79688,3.20313c0.40625,0 1.20312,0 1.59375,-0.40625c0.8125,-0.40625 1.20312,-0.40625 2,-1.20312c0.8125,-0.39062 1.20312,-1.20312 2,-2.39062c0.8125,-0.8125 1.20312,-2.40625 1.60937,-4l2,-21.60938c-0.79687,-0.39062 -2,-0.39062 -2.79687,-0.39062c-2,0 -3.60938,0.39062 -4.8125,1.1875c-1.1875,0.8125 -2.39063,2 -3.59375,3.20312c-0.79688,1.60938 -1.59375,3.20312 -2.40625,5.20312c-0.79688,2 -0.79688,5.20312 -1.1875,8z" fill="#ffffff"/></g></g><path d="" fill="none"/><path d="" fill="none"/></g></g></svg>
