<?xml version="1.0" encoding="utf-8"?><!--
  ~ CoreShop.
  ~
  ~ This source file is subject to the GNU General Public License version 3 (GPLv3)
  ~ For the full copyright and license information, please view the LICENSE.md and gpl-3.0.txt
  ~ files that are distributed with this source code.
  ~
  ~ @copyright  Copyright (c) 2015-2017 Dominik Pfaffenbauer (https://www.pfaffenbauer.at)
  ~ @license    https://www.coreshop.org/license     GNU General Public License version 3 (GPLv3)
  ~
  -->

<!-- Generator: Adobe Illustrator 18.1.1, SVG Export Plug-In . SVG Version: 6.00 Build 0)  --><svg xmlns="http://www.w3.org/2000/svg" xmlns:xlink="http://www.w3.org/1999/xlink" version="1.0" id="Layer_1" x="0px" y="0px" viewBox="0 0 48 48" enable-background="new 0 0 48 48" xml:space="preserve">
<path fill="#673AB7" d="M40,7H8c-2.2,0-4,1.8-4,4v26c0,2.2,1.8,4,4,4h5v-1.3c-0.6-0.3-1-1-1-1.7c0-1.1,0.9-2,2-2s2,0.9,2,2  c0,0.7-0.4,1.4-1,1.7V41h18v-1.3c-0.6-0.3-1-1-1-1.7c0-1.1,0.9-2,2-2s2,0.9,2,2c0,0.7-0.4,1.4-1,1.7V41h5c2.2,0,4-1.8,4-4V11  C44,8.8,42.2,7,40,7z"/>
<g>
	<circle fill="#D1C4E9" cx="24" cy="18" r="4"/>
	<path fill="#D1C4E9" d="M31,28c0,0-1.9-4-7-4c-5.1,0-7,4-7,4v2h14V28z"/>
</g>
</svg>