<?xml version="1.0" encoding="utf-8"?><!--
  ~ CoreShop.
  ~
  ~ This source file is subject to the GNU General Public License version 3 (GPLv3)
  ~ For the full copyright and license information, please view the LICENSE.md and gpl-3.0.txt
  ~ files that are distributed with this source code.
  ~
  ~ @copyright  Copyright (c) 2015-2017 Dominik Pfaffenbauer (https://www.pfaffenbauer.at)
  ~ @license    https://www.coreshop.org/license     GNU General Public License version 3 (GPLv3)
  ~
  -->

<!-- Generator: Adobe Illustrator 15.0.0, SVG Export Plug-In . SVG Version: 6.00 Build 0)  --><!DOCTYPE svg PUBLIC "-//W3C//DTD SVG 1.1//EN" "http://www.w3.org/Graphics/SVG/1.1/DTD/svg11.dtd"><svg xmlns="http://www.w3.org/2000/svg" xmlns:xlink="http://www.w3.org/1999/xlink" version="1.1" id="Слой_1" x="0px" y="0px"   viewBox="0 0 48 48" enable-background="new 0 0 48 48" xml:space="preserve">
<g>
	<path fill="#1976D2" d="M38,14h-3c-5.514,0-10,4.486-10,10s4.486,10,10,10h3c5.514,0,10-4.486,10-10S43.514,14,38,14 M38,30h-3   c-3.309,0-6-2.691-6-6s2.691-6,6-6h3c3.309,0,6,2.691,6,6S41.309,30,38,30"/>
	<path fill="#1976D2" d="M13,14h-3C4.486,14,0,18.486,0,24s4.486,10,10,10h3c5.514,0,10-4.486,10-10S18.514,14,13,14 M13,30h-3   c-3.309,0-6-2.691-6-6s2.691-6,6-6h3c3.309,0,6,2.691,6,6S16.309,30,13,30"/>
</g>
<path fill="#42A5F5" d="M33,22H15c-1.104,0-2,0.896-2,2s0.896,2,2,2h18c1.104,0,2-0.896,2-2S34.104,22,33,22"/>
</svg>