<svg version="1.1" id="Слой_1" xmlns="http://www.w3.org/2000/svg"  x="0px" y="0px" viewBox="0 0 40 40" style="enable-background:new 0 0 40 40;" xml:space="preserve">
<g>
	<path style="fill:#BAE0BD;" d="M36.5,37.249c-12.647-5.172-29.861-5.691-33-5.743V10.5h33V37.249z"/>
	<path style="fill:#5E9C76;" d="M36,11v25.51c-12.231-4.794-27.886-5.417-32-5.498V11H36 M37,10H3v22c0,0,20,0,34,6V10L37,10z"/>
</g>
<g>
	<path style="fill:#BAE0BD;" d="M37.5,32.384c-12.728-2.607-31.69-2.858-35-2.882V8.5h35V32.384z"/>
	<path style="fill:#5E9C76;" d="M37,9v22.774c-12.217-2.398-29.668-2.723-34-2.767V9H37 M38,8H2v22c0,0,22,0,36,3V8L38,8z"/>
</g>
<g>
	<rect x="1.5" y="6.5" style="fill:#BAE0BD;" width="37" height="21"/>
	<path style="fill:#5E9C76;" d="M38,7v20H2V7H38 M39,6H1v22h38V6L39,6z"/>
</g>
<g>
	<circle style="fill:#FFFFFF;" cx="20" cy="17" r="7.5"/>
	<g>
		<path style="fill:#5E9C76;" d="M20,10c3.86,0,7,3.14,7,7s-3.14,7-7,7s-7-3.14-7-7S16.14,10,20,10 M20,9c-4.418,0-8,3.582-8,8&#10;&#9;&#9;&#9;s3.582,8,8,8s8-3.582,8-8S24.418,9,20,9L20,9z"/>
	</g>
</g>
<g>
	<circle style="fill:#FFFFFF;" cx="33" cy="17" r="2.5"/>
	<g>
		<path style="fill:#5E9C76;" d="M33,15c1.103,0,2,0.897,2,2s-0.897,2-2,2c-1.103,0-2-0.897-2-2S31.897,15,33,15 M33,14&#10;&#9;&#9;&#9;c-1.657,0-3,1.343-3,3s1.343,3,3,3s3-1.343,3-3S34.657,14,33,14L33,14z"/>
	</g>
</g>
<g>
	<circle style="fill:#FFFFFF;" cx="7" cy="17" r="2.5"/>
	<g>
		<path style="fill:#5E9C76;" d="M7,15c1.103,0,2,0.897,2,2s-0.897,2-2,2s-2-0.897-2-2S5.897,15,7,15 M7,14c-1.657,0-3,1.343-3,3&#10;&#9;&#9;&#9;s1.343,3,3,3s3-1.343,3-3S8.657,14,7,14L7,14z"/>
	</g>
</g>
</svg>