<svg xmlns="http://www.w3.org/2000/svg"  viewBox="0 0 48 48"><path fill="#90CAF9" d="M4,15v18h40V15H4z"/><path fill="#3F51B5" d="M23,42v-4c2.971,0,3.932-0.626,5.107-1.811C28.925,35.367,29,34.945,29,34.938V13.539C28.975,13.259,29.771,10,23,10V6c10.939,0,9.998,7.42,10,7.495v21.429c0.002,0.239-0.041,2.057-2.055,4.084C28.975,40.993,27.118,42,23,42z"/><path fill="#3F51B5" d="M39,42v-4c-2.971,0-3.932-0.626-5.107-1.811C33.075,35.367,33,34.945,33,34.938V13.539C33.025,13.259,32.229,10,39,10V6c-10.939,0-9.998,7.42-10,7.495v21.429c-0.002,0.239,0.041,2.057,2.055,4.084C33.025,40.993,34.882,42,39,42z"/></svg>