<?xml version="1.0" encoding="utf-8"?><!--
  ~ CoreShop.
  ~
  ~ This source file is subject to the GNU General Public License version 3 (GPLv3)
  ~ For the full copyright and license information, please view the LICENSE.md and gpl-3.0.txt
  ~ files that are distributed with this source code.
  ~
  ~ @copyright  Copyright (c) 2015-2017 Dominik Pfaffenbauer (https://www.pfaffenbauer.at)
  ~ @license    https://www.coreshop.org/license     GNU General Public License version 3 (GPLv3)
  ~
  -->

<!-- Generator: Adobe Illustrator 15.0.0, SVG Export Plug-In . SVG Version: 6.00 Build 0)  --><!DOCTYPE svg PUBLIC "-//W3C//DTD SVG 1.1//EN" "http://www.w3.org/Graphics/SVG/1.1/DTD/svg11.dtd"><svg xmlns="http://www.w3.org/2000/svg" xmlns:xlink="http://www.w3.org/1999/xlink" version="1.1" id="Слой_1" x="0px" y="0px"   viewBox="0 0 48 48" enable-background="new 0 0 48 48" xml:space="preserve">
<g>
	<path fill="#3F51B5" d="M16,45v-4c2.971,0,3.932-0.626,5.107-1.811C21.925,38.367,22,37.946,22,37.938V10.539   C21.975,10.259,22.771,7,16,7V3c10.939,0,9.998,7.42,10,7.495v27.429c0.002,0.239-0.041,2.057-2.054,4.084   C21.975,43.993,20.118,45,16,45z"/>
	<path fill="#3F51B5" d="M32,45v-4c-2.971,0-3.932-0.626-5.107-1.811C26.075,38.367,26,37.946,26,37.938V10.539   C26.025,10.259,25.229,7,32,7V3c-10.939,0-9.998,7.42-10,7.495v27.429c-0.002,0.239,0.041,2.057,2.054,4.084   C26.025,43.993,27.882,45,32,45z"/>
	<rect x="16" y="22" fill="#3F51B5" width="16" height="4"/>
</g>
</svg>