<?xml version="1.0" encoding="iso-8859-1"?><!--
  ~ CoreShop.
  ~
  ~ This source file is subject to the GNU General Public License version 3 (GPLv3)
  ~ For the full copyright and license information, please view the LICENSE.md and gpl-3.0.txt
  ~ files that are distributed with this source code.
  ~
  ~ @copyright  Copyright (c) 2015-2021 Dominik Pfaffenbauer (https://www.pfaffenbauer.at)
  ~ @license    https://www.coreshop.org/license     GNU General Public License version 3 (GPLv3)
  ~
  -->

<!-- Generator: Adobe Illustrator 19.1.1, SVG Export Plug-In . SVG Version: 6.00 Build 0)  -->
<svg xmlns="http://www.w3.org/2000/svg"  version="1.1" id="Layer_1" x="0px" y="0px" viewBox="0 0 48 48" style="enable-background:new 0 0 48 48;" xml:space="preserve"  >
<rect x="27" y="13.25" style="fill:#3E2723;" width="12" height="13.731"/>
<path style="fill:#2196F3;" d="M36.75,26L36.75,26c0,0-2.219-0.313-3.75-0.313S29.25,26,29.25,26S21,27.527,21,36h24  C45,27.559,36.75,26,36.75,26"/>
<path style="fill:#EF8D3C;" d="M33,29.75c-1.439,0-3.5-3.75-3.5-3.75v-5h7v5C36.5,26,34.439,29.75,33,29.75"/>
<path style="fill:#FFAA45;" d="M40,18c0,3.728-3.272,7-7,7c-3.729,0-7-3.272-7-7v-6c0-3.728,14-5.726,14,0V18z M33,31  c2.901,0,3.5-5,3.5-5s-1.864,3-3.5,3s-3.5-3-3.5-3S30.099,31,33,31"/>
<path style="fill:#0D47A1;" d="M33,33c3.552,0,5.066-3.932,5.443-6.467C37.456,26.14,36.75,26,36.75,26s-0.103-0.014-0.25-0.033V26  c0,0-0.599,5-3.5,5s-3.5-5-3.5-5v-0.033C29.353,25.986,29.25,26,29.25,26s-0.706,0.137-1.694,0.528C27.932,29.063,29.446,33,33,33z"/>
<path style="fill:#784719;" d="M35,17c0-0.551,0.448-1,1-1s1,0.449,1,1s-0.448,1-1,1S35,17.551,35,17 M29,17c0,0.551,0.448,1,1,1  s1-0.449,1-1s-0.448-1-1-1S29,16.449,29,17"/>
<path style="fill:#4E342E;" d="M33,6c-4.556,0-11,2.089-11,17l5,3.98V16l9-5l3,4v12l5-5c0-3.019-0.255-14.5-8-14.5L35,6H33z"/>
<path style="fill:#FFA726;" d="M23,23.5c0,0.828-0.672,1.5-1.5,1.5c-0.829,0-1.5-0.672-1.5-1.5s0.671-1.5,1.5-1.5  C22.328,22,23,22.672,23,23.5 M10,23.5c0-0.828-0.672-1.5-1.5-1.5S7,22.672,7,23.5S7.672,25,8.5,25S10,24.328,10,23.5"/>
<path style="fill:#FF9800;" d="M19,32c0,0,0,4-4,4s-4-4-4-4"/>
<path style="fill:#4FC3F7;" d="M18.75,32L18.75,32L15,32.77L11.25,32c0,0-8.25,1.527-8.25,10h24C27,33.559,18.75,32,18.75,32"/>
<path style="fill:#FF9800;" d="M15,36c-4,0-4-4-4-4v-4h8v4C19,32,19,36,15,36z"/>
<path style="fill:#FFB74D;" d="M22,19.68c0-5.879-14-3.828-14,0v4.391C8,27.895,11.133,31,15,31c3.866,0,7-3.105,7-6.93V19.68z"/>
<path style="fill:#01579B;" d="M15,38c3.059,0,5.578-2.292,5.948-5.25c-0.884-0.398-1.603-0.607-1.954-0.693  C18.963,34.238,17.19,36,15,36c-2.19,0-3.964-1.762-3.994-3.945c-0.353,0.086-1.071,0.293-1.955,0.688C9.417,35.705,11.939,38,15,38  z"/>
<path style="fill:#795548;" d="M15,12c-4.86,0-8,4.313-8,8.172V22l2,2v-4l9.2-3l2.8,3v4l2-2v-0.809c0-3.218-0.831-6.803-4.8-7.592  L17.399,12H15z"/>
<path style="fill:#784719;" d="M17,23c0-0.551,0.448-1,1-1s1,0.449,1,1s-0.448,1-1,1S17,23.551,17,23 M11,23c0,0.551,0.448,1,1,1  s1-0.449,1-1s-0.448-1-1-1S11,22.449,11,23"/>
</svg>
