<?xml version="1.0" encoding="utf-8"?><!--
  ~ CoreShop.
  ~
  ~ This source file is subject to the GNU General Public License version 3 (GPLv3)
  ~ For the full copyright and license information, please view the LICENSE.md and gpl-3.0.txt
  ~ files that are distributed with this source code.
  ~
  ~ @copyright  Copyright (c) 2015-2017 Dominik Pfaffenbauer (https://www.pfaffenbauer.at)
  ~ @license    https://www.coreshop.org/license     GNU General Public License version 3 (GPLv3)
  ~
  -->

<!-- Generator: Adobe Illustrator 15.0.0, SVG Export Plug-In . SVG Version: 6.00 Build 0)  --><!DOCTYPE svg PUBLIC "-//W3C//DTD SVG 1.1//EN" "http://www.w3.org/Graphics/SVG/1.1/DTD/svg11.dtd"><svg xmlns="http://www.w3.org/2000/svg" xmlns:xlink="http://www.w3.org/1999/xlink" version="1.1" x="0px" y="0px" viewBox="0 0 48 48" enable-background="new 0 0 48 48" xml:space="preserve" style="fill: rgb(241, 196, 15);">
<path fill="#5C6BC0" d="M29,15v-5c0-0.348,0.059-0.678,0.141-0.999H18.859C18.942,9.322,19,9.652,19,10v5c0,2.209-1.791,4-4,4h18  C30.791,19,29,17.209,29,15z"/>
<g>
	<path fill="#9FA8DA" d="M32,11c0,0.552-0.447,1-1,1H17c-0.552,0-1-0.448-1-1V7c0-0.552,0.448-1,1-1h14c0.553,0,1,0.448,1,1V11z"/>
	<path fill="#9FA8DA" d="M36,41c0,0.553-0.447,1-1,1H13c-0.552,0-1-0.447-1-1V20c0-0.551,0.448-1,1-1h22c0.553,0,1,0.449,1,1V41z"/>
</g>
<path fill="#3949AB" d="M27.083,29.669c-0.61-0.639-1.485-0.958-2.623-0.958c-0.294,0-0.594,0.041-0.9,0.12  c-0.307,0.08-0.554,0.172-0.743,0.276L23.076,27H27v-2h-6.08l-0.7,5.55l2.108,0.47c0.304-0.377,0.766-0.564,1.384-0.564  c1.091,0,1.637,0.578,1.637,1.733c0,1.249-0.446,1.872-1.338,1.872c-0.394,0-0.711-0.113-0.952-0.348  c-0.188-0.182-0.292-0.43-0.349-0.713h-2.695c0.036,0.521,0.201,0.999,0.512,1.426c0.356,0.488,0.849,0.872,1.478,1.154  c0.629,0.279,1.303,0.42,2.021,0.42c0.807,0,1.508-0.151,2.1-0.455c0.594-0.303,1.054-0.736,1.381-1.3  C27.836,33.681,28,33.051,28,32.356C28,31.203,27.693,30.307,27.083,29.669z"/>
</svg>