<?xml version="1.0" encoding="utf-8"?>
<!--
  ~ CoreShop.
  ~
  ~ This source file is subject to the GNU General Public License version 3 (GPLv3)
  ~ For the full copyright and license information, please view the LICENSE.md and gpl-3.0.txt
  ~ files that are distributed with this source code.
  ~
  ~ @copyright  Copyright (c) 2015-2019 Dominik Pfaffenbauer (https://www.pfaffenbauer.at)
  ~ @license    https://www.coreshop.org/license     GNU General Public License version 3 (GPLv3)
  ~
  -->

<!-- Generator: Adobe Illustrator 19.1.0, SVG Export Plug-In . SVG Version: 6.00 Build 0)  -->
<svg version="1.1" id="Ebene_1" xmlns="http://www.w3.org/2000/svg"  x="0px" y="0px"
	 viewBox="0 0 61.3 84.6" enable-background="new 0 0 61.3 84.6" xml:space="preserve">
<style type="text/css">
	.st0{display:none;}
	.st1{display:inline;fill:#5CB672;}
	.st2{display:inline;fill:#161B1F;}
	.st3{fill:#5CB672;}
	.st4{fill:#161B1F;}
</style>
<g>
	<g class="st0">
		<path class="st1" d="M7.4,113.2c1.6,0,2.9-0.6,3.8-1.9l2,2.1c-1.6,1.8-3.5,2.7-5.7,2.7c-2.2,0-4-0.7-5.4-2.1
			C0.7,112.7,0,111,0,108.8c0-2.1,0.7-3.9,2.2-5.3c1.5-1.4,3.2-2.1,5.3-2.1c2.3,0,4.3,0.9,5.9,2.7l-2,2.3c-1-1.3-2.3-1.9-3.8-1.9
			c-1.2,0-2.2,0.4-3.1,1.2c-0.9,0.8-1.3,1.8-1.3,3.2c0,1.3,0.4,2.4,1.2,3.2C5.3,112.8,6.3,113.2,7.4,113.2z"/>
		<path class="st1" d="M26.1,110.5c0,1.6-0.6,2.9-1.7,4c-1.1,1.1-2.5,1.6-4.2,1.6s-3.1-0.5-4.2-1.6c-1.1-1.1-1.7-2.4-1.7-4
			c0-1.6,0.6-2.9,1.7-4c1.1-1.1,2.5-1.6,4.2-1.6s3.1,0.5,4.2,1.6C25.6,107.6,26.1,108.9,26.1,110.5z M17.6,110.5
			c0,0.9,0.3,1.6,0.8,2.2c0.5,0.6,1.2,0.8,2,0.8s1.5-0.3,2-0.8c0.5-0.6,0.8-1.3,0.8-2.2c0-0.9-0.3-1.6-0.8-2.2
			c-0.5-0.6-1.2-0.9-2-0.9s-1.5,0.3-2,0.9C17.8,108.9,17.6,109.6,17.6,110.5z"/>
		<path class="st1" d="M34.2,107.7c-0.9,0-1.6,0.3-2,1c-0.5,0.6-0.7,1.5-0.7,2.6v4.8h-3.1v-11h3.1v1.5c0.4-0.5,0.9-0.8,1.5-1.1
			c0.6-0.3,1.2-0.5,1.8-0.5l0,2.9H34.2z"/>
		<path class="st1" d="M46.3,114.4c-1.2,1.2-2.7,1.8-4.4,1.8s-3.1-0.5-4.1-1.5c-1.1-1-1.6-2.4-1.6-4.1c0-1.7,0.6-3.1,1.7-4.1
			c1.1-1,2.4-1.5,3.9-1.5c1.5,0,2.8,0.5,3.9,1.4c1.1,0.9,1.6,2.2,1.6,3.8v1.6h-8c0.1,0.6,0.4,1.1,0.9,1.5c0.5,0.4,1.1,0.6,1.8,0.6
			c1.1,0,2-0.4,2.7-1.1L46.3,114.4z M43.4,107.9c-0.4-0.4-0.9-0.5-1.5-0.5c-0.6,0-1.2,0.2-1.7,0.6c-0.5,0.4-0.8,0.9-0.9,1.5h4.8
			C44,108.8,43.8,108.3,43.4,107.9z"/>
		<path class="st2" d="M52.9,104.6c-0.3,0.3-0.5,0.6-0.5,1s0.2,0.7,0.6,1c0.4,0.2,1.2,0.5,2.6,0.9c1.4,0.3,2.4,0.8,3.2,1.5
			c0.8,0.7,1.1,1.6,1.1,2.9c0,1.3-0.5,2.3-1.4,3.1c-1,0.8-2.2,1.2-3.8,1.2c-2.3,0-4.3-0.8-6.1-2.5l1.9-2.3c1.5,1.3,3,2,4.3,2
			c0.6,0,1-0.1,1.4-0.4c0.3-0.3,0.5-0.6,0.5-1c0-0.4-0.2-0.8-0.5-1c-0.4-0.3-1.1-0.5-2.1-0.8c-1.7-0.4-2.9-0.9-3.7-1.5
			c-0.8-0.6-1.2-1.6-1.2-3c0-1.4,0.5-2.4,1.5-3.1c1-0.7,2.2-1.1,3.7-1.1c1,0,1.9,0.2,2.9,0.5c1,0.3,1.8,0.8,2.5,1.4l-1.6,2.3
			c-1.2-0.9-2.5-1.4-3.8-1.4C53.6,104.2,53.2,104.3,52.9,104.6z"/>
		<path class="st2" d="M65.4,110.1v5.9h-3.1v-15.2h3.1v5.4c0.9-0.9,2-1.4,3.1-1.4s2.1,0.4,2.9,1.2c0.8,0.8,1.2,1.9,1.2,3.3v6.7h-3.1
			v-6c0-1.7-0.6-2.5-1.9-2.5c-0.6,0-1.1,0.2-1.6,0.7C65.6,108.6,65.4,109.2,65.4,110.1z"/>
		<path class="st2" d="M86.4,110.5c0,1.6-0.6,2.9-1.7,4c-1.1,1.1-2.5,1.6-4.2,1.6c-1.7,0-3.1-0.5-4.2-1.6c-1.1-1.1-1.7-2.4-1.7-4
			c0-1.6,0.6-2.9,1.7-4c1.1-1.1,2.5-1.6,4.2-1.6c1.7,0,3.1,0.5,4.2,1.6C85.8,107.6,86.4,108.9,86.4,110.5z M77.8,110.5
			c0,0.9,0.3,1.6,0.8,2.2c0.5,0.6,1.2,0.8,2,0.8s1.5-0.3,2-0.8c0.5-0.6,0.8-1.3,0.8-2.2c0-0.9-0.3-1.6-0.8-2.2
			c-0.5-0.6-1.2-0.9-2-0.9s-1.5,0.3-2,0.9C78.1,108.9,77.8,109.6,77.8,110.5z"/>
		<path class="st2" d="M95.1,104.8c1.3,0,2.4,0.5,3.4,1.6c1,1.1,1.5,2.4,1.5,4c0,1.6-0.5,3-1.5,4.1c-1,1.1-2.2,1.6-3.5,1.6
			c-1.3,0-2.4-0.5-3.2-1.6v5.4h-3.1v-15h3.1v1.2C92.7,105.3,93.8,104.8,95.1,104.8z M91.7,110.5c0,0.9,0.2,1.6,0.7,2.2
			c0.5,0.6,1.1,0.8,1.8,0.8c0.7,0,1.3-0.3,1.9-0.8c0.5-0.6,0.8-1.3,0.8-2.2c0-0.9-0.3-1.6-0.8-2.2c-0.5-0.6-1.1-0.9-1.9-0.9
			s-1.3,0.3-1.8,0.9C91.9,108.9,91.7,109.6,91.7,110.5z"/>
	</g>
	<g>
		<path id="Shake" class="st3" d="M60.8,33.7c0-0.1-8.8-20.3-8.8-20.3c-0.7-1.3-1.4-2-2.7-2.5c-1.3-0.6-2.2-0.7-3.7-0.4l-2.9,0.9
			c0,1.7,0.2,3.4,0.6,4.7c0,0.1,0.1,0.2,0.1,0.3c0.8-1.3,2.5-1.9,4-1.2c1.6,0.7,2.3,2.6,1.6,4.2c-0.7,1.6-2.6,2.3-4.2,1.5
			c-1-0.5-1.7-1.4-1.8-2.4c0,0,0,0,0,0c-1.3-2.2-1.4-5.6-1.4-6.7l-16.7,5.2c-2.3,1.1-4.1,2-5.2,4.3c-0.8,1.8-4.2,9.1-7.9,17.2
			L3.3,56.8C1.5,60.5,0.4,63,0.4,63c-1,2.3,0,5,2.2,6c0,0,29.8,13.7,33,15.2c2.3,1,5,0,6-2.2l9.9-21.6l0.8-1.7l8.5-18.5
			c0.8-1.8,0.7-3.4,0.3-5.1"/>
		<g>
			<path class="st4" d="M47.5,0c-1.8-0.1-2.9,1.8-3.4,3.3c-0.8,2-1.2,4.1-1.3,6.3c-0.2,2.4,0,4.7,0.5,6.5c0.4,1.3,1.1,3.1,2.6,3.4
				c0.7,0.2,1.5-0.1,2-0.5c0.5-0.4,0.9-1,1.1-1.3c0.1-0.1,0.1-0.2,0.1-0.2c-0.1-0.9-0.7-1.7-1.5-2.2c-0.2,0.4-0.3,0.8-0.5,1.1
				c-0.1,0.2-0.5,1-0.9,0.8c-0.5-0.2-0.8-1.7-1-2.3c-0.3-1.3-0.5-3-0.3-5.2c0.3-4.4,1.6-7.1,2.3-7.4c0.5,0.2,1.6,2.5,1.4,6.9
				c0,0,1.1,0.3,2.2,1c0-0.1,0.2-2-0.1-4.2c-0.2-1.8-0.5-3.9-1.9-5.3C48.6,0.3,48.1,0,47.5,0z"/>
		</g>
	</g>
</g>
</svg>
