<?xml version="1.0" encoding="utf-8"?><!--
  ~ CoreShop.
  ~
  ~ This source file is subject to the GNU General Public License version 3 (GPLv3)
  ~ For the full copyright and license information, please view the LICENSE.md and gpl-3.0.txt
  ~ files that are distributed with this source code.
  ~
  ~ @copyright  Copyright (c) 2015-2017 Dominik Pfaffenbauer (https://www.pfaffenbauer.at)
  ~ @license    https://www.coreshop.org/license     GNU General Public License version 3 (GPLv3)
  ~
  -->

<!-- Generator: Adobe Illustrator 15.0.0, SVG Export Plug-In . SVG Version: 6.00 Build 0)  --><!DOCTYPE svg PUBLIC "-//W3C//DTD SVG 1.1//EN" "http://www.w3.org/Graphics/SVG/1.1/DTD/svg11.dtd">
<svg xmlns="http://www.w3.org/2000/svg"  version="1.1" id="Слой_1" x="0px" y="0px"   viewBox="0 0 48 48" enable-background="new 0 0 48 48" xml:space="preserve">
<g>
	<path fill="#FFC107" d="M20,9v26v2c0,0,1,3,11,3s11-3,11-3v-4V9H20z"/>
	<g>
		<ellipse fill="#FFC107" cx="31" cy="7" rx="11" ry="3"/>
	</g>
</g>
<path fill="#FF9800" d="M20,13c0,0,1,3,11,3s11-3,11-3v3c0,0-1,3-11,3s-11-3-11-3V13z M20,22c0,0,1,3,11,3s11-3,11-3v-3  c0,0-1,3-11,3s-11-3-11-3V22z M20,28c0,0,1,3,11,3s11-3,11-3v-3c0,0-1,3-11,3s-11-3-11-3V28z M20,34c0,0,1,3,11,3s11-3,11-3v-3  c0,0-1,3-11,3s-11-3-11-3V34z M20,10c0,0,1,3,11,3s11-3,11-3V7c0,0-1,3-11,3S20,7,20,7V10z"/>
<path fill="#F57C00" d="M28,31.899V36v3.001v0.891C28.901,39.958,29.887,40,31,40c0.353,0,0.67-0.012,1-0.02v-0.979V36v-4.101  c0-5.154-6.604-6.149-11.943-6.782L20,29.015C24.615,29.372,28,30.526,28,31.899z"/>
<g>
	<path fill="#D66805" d="M31,31c0.326,0,0.621-0.011,0.925-0.018c-0.217-1.27-0.899-2.238-1.866-3   c-7.993-0.164-9.708-2.337-10.002-2.865l-0.027,1.9c4.6,0.359,7.971,1.512,7.971,2.882v0.992C28.901,30.958,29.887,31,31,31z"/>
	<path fill="#D66805" d="M28,33.892V36v0.892C28.901,36.958,29.887,37,31,37c0.353,0,0.67-0.012,1-0.02V36v-2.02   C31.67,33.988,31.353,34,31,34C29.887,34,28.901,33.958,28,33.892z"/>
</g>
<g>
	<rect x="6" y="29" fill="#CFD8DC" width="22" height="9.001"/>
	<path fill="#CFD8DC" d="M6,36c0,0,1,3,11,3s11-3,11-3v4c0,0-1,3-11,3S6,40,6,40V36z"/>
	<g>
		<ellipse fill="#CFD8DC" cx="17" cy="28" rx="11" ry="3"/>
	</g>
</g>
<g>
	<path fill="#90A4AE" d="M6,28c0,0,1,3,11,3s11-3,11-3v3c0,0-1,3-11,3S6,31,6,31V28z"/>
	<path fill="#90A4AE" d="M6,34c0,0,1,3,11,3s11-3,11-3v3c0,0-1,3-11,3S6,37,6,37V34z"/>
</g>
</svg>