<?xml version="1.0" encoding="utf-8"?><!--
  ~ CoreShop.
  ~
  ~ This source file is subject to the GNU General Public License version 3 (GPLv3)
  ~ For the full copyright and license information, please view the LICENSE.md and gpl-3.0.txt
  ~ files that are distributed with this source code.
  ~
  ~ @copyright  Copyright (c) 2015-2020 Dominik Pfaffenbauer (https://www.pfaffenbauer.at)
  ~ @license    https://www.coreshop.org/license     GNU General Public License version 3 (GPLv3)
  ~
  -->

<!-- Generator: Adobe Illustrator 15.0.0, SVG Export Plug-In . SVG Version: 6.00 Build 0)  --><!DOCTYPE svg PUBLIC "-//W3C//DTD SVG 1.1//EN" "http://www.w3.org/Graphics/SVG/1.1/DTD/svg11.dtd">
<svg xmlns="http://www.w3.org/2000/svg"  version="1.1" id="Слой_1" x="0px" y="0px"   viewBox="0 0 48 48" enable-background="new 0 0 48 48" xml:space="preserve">
<g>
	<path fill="white" d="M20,9v26v2c0,0,1,3,11,3s11-3,11-3v-4V9H20z"/>
	<g>
		<ellipse fill="white" cx="31" cy="7" rx="11" ry="3"/>
	</g>
</g>
<path fill="black" d="M20,13c0,0,1,3,11,3s11-3,11-3v3c0,0-1,3-11,3s-11-3-11-3V13z M20,22c0,0,1,3,11,3s11-3,11-3v-3  c0,0-1,3-11,3s-11-3-11-3V22z M20,28c0,0,1,3,11,3s11-3,11-3v-3c0,0-1,3-11,3s-11-3-11-3V28z M20,34c0,0,1,3,11,3s11-3,11-3v-3  c0,0-1,3-11,3s-11-3-11-3V34z M20,10c0,0,1,3,11,3s11-3,11-3V7c0,0-1,3-11,3S20,7,20,7V10z"/>

<g>
	<rect x="6" y="29" fill="white" width="22" height="9.001"/>
	<path fill="white" d="M6,36c0,0,1,3,11,3s11-3,11-3v4c0,0-1,3-11,3S6,40,6,40V36z"/>
	<g>
		<ellipse fill="white" cx="17" cy="28" rx="11" ry="3"/>
	</g>
</g>
<g>
	<path fill="black" d="M6,28c0,0,1,3,11,3s11-3,11-3v3c0,0-1,3-11,3S6,31,6,31V28z"/>
	<path fill="black" d="M6,34c0,0,1,3,11,3s11-3,11-3v3c0,0-1,3-11,3S6,37,6,37V34z"/>
</g>
</svg>
