<?xml version="1.0" encoding="utf-8"?><!--
  ~ CoreShop.
  ~
  ~ This source file is subject to the GNU General Public License version 3 (GPLv3)
  ~ For the full copyright and license information, please view the LICENSE.md and gpl-3.0.txt
  ~ files that are distributed with this source code.
  ~
  ~ @copyright  Copyright (c) 2015-2017 Dominik Pfaffenbauer (https://www.pfaffenbauer.at)
  ~ @license    https://www.coreshop.org/license     GNU General Public License version 3 (GPLv3)
  ~
  -->

<!-- Generator: Adobe Illustrator 18.1.1, SVG Export Plug-In . SVG Version: 6.00 Build 0)  -->
<svg xmlns="http://www.w3.org/2000/svg"  version="1.1" id="Layer_1" x="0px" y="0px" viewBox="0 0 48 48" enable-background="new 0 0 48 48" xml:space="preserve"  >
<path fill="#607D8B" d="M25.4,5.6c-0.8-0.8-2-0.8-2.8,0l-12,12c-0.8,0.8-0.8,2,0,2.8C11,20.8,11.5,21,12,21s1-0.2,1.4-0.6l12-12  C26.2,7.6,26.2,6.4,25.4,5.6z"/>
<path fill="#455A64" d="M37.4,17.6l-12-12c-0.8-0.8-2-0.8-2.8,0c-0.8,0.8-0.8,2,0,2.8l12,12C35,20.8,35.5,21,36,21s1-0.2,1.4-0.6  C38.2,19.6,38.2,18.4,37.4,17.6z"/>
<path fill="#D32F2F" d="M37.4,41H10.6c-1,0-1.8-0.7-2-1.6L5,21h38l-3.7,18.4C39.1,40.3,38.3,41,37.4,41z"/>
<path fill="#F44336" d="M43,23H5c-1.1,0-2-0.9-2-2v-2c0-1.1,0.9-2,2-2h38c1.1,0,2,0.9,2,2v2C45,22.1,44.1,23,43,23z"/>
<path fill="#7D1313" d="M25,25h-2c0,0,0,10.8,0,11c0,0.6,0.4,1,1,1s1-0.4,1-1C25,35.8,25,25,25,25z"/>
<path fill="#7D1313" d="M29,25h-2c0,0,0,10.8,0,11c0,0.6,0.4,1,1,1s1-0.4,1-1C29,35.8,29,25,29,25z"/>
<path fill="#7D1313" d="M33,25h-2c0,0,0,10.8,0,11c0,0.6,0.4,1,1,1s1-0.4,1-1C33,35.8,33,25,33,25z"/>
<path fill="#7D1313" d="M17,25h-2c0,0,0,10.8,0,11c0,0.6,0.4,1,1,1s1-0.4,1-1C17,35.8,17,25,17,25z"/>
<path fill="#7D1313" d="M21,25h-2c0,0,0,10.8,0,11c0,0.6,0.4,1,1,1s1-0.4,1-1C21,35.8,21,25,21,25z"/>
</svg>