<?xml version="1.0" encoding="utf-8"?><!--
  ~ CoreShop.
  ~
  ~ This source file is subject to the GNU General Public License version 3 (GPLv3)
  ~ For the full copyright and license information, please view the LICENSE.md and gpl-3.0.txt
  ~ files that are distributed with this source code.
  ~
  ~ @copyright  Copyright (c) 2015-2017 Dominik Pfaffenbauer (https://www.pfaffenbauer.at)
  ~ @license    https://www.coreshop.org/license     GNU General Public License version 3 (GPLv3)
  ~
  -->

<!-- Generator: Adobe Illustrator 18.1.1, SVG Export Plug-In . SVG Version: 6.00 Build 0)  --><svg xmlns="http://www.w3.org/2000/svg" xmlns:xlink="http://www.w3.org/1999/xlink" version="1.0" id="Layer_1" x="0px" y="0px" viewBox="0 0 48 48" enable-background="new 0 0 48 48" xml:space="preserve"  >
<rect x="13" y="30" fill="#BF360C" width="22" height="12"/>
<g>
	<circle fill="#FFA726" cx="10" cy="26" r="4"/>
	<circle fill="#FFA726" cx="38" cy="26" r="4"/>
</g>
<path fill="#FFB74D" d="M39,19c0-12.7-30-8.3-30,0c0,1.8,0,8.2,0,10c0,8.3,6.7,15,15,15s15-6.7,15-15C39,27.2,39,20.8,39,19z"/>
<g>
	<circle fill="#784719" cx="30" cy="26" r="2"/>
	<circle fill="#784719" cx="18" cy="26" r="2"/>
</g>
<path fill="#FF5722" d="M24,2C15.5,2,3,7.8,3,35.6L13,42V24l16.8-9.8L35,21v21l10-8.2c0-5.6-0.9-29-15.4-29L28.2,2H24z"/>
<path fill="#757575" d="M45,24c-0.6,0-1,0.4-1,1v-7c0-8.8-7.2-16-16-16h-9c-0.6,0-1,0.4-1,1s0.4,1,1,1h9c7.7,0,14,6.3,14,14v10  c0,0.6,0.4,1,1,1s1-0.4,1-1v2c0,3.9-3.1,7-7,7H24c-0.6,0-1,0.4-1,1s0.4,1,1,1h13c5,0,9-4,9-9v-5C46,24.4,45.6,24,45,24z"/>
<g>
	<path fill="#37474F" d="M45,22h-1c-1.1,0-2,0.9-2,2v4c0,1.1,0.9,2,2,2h1c1.1,0,2-0.9,2-2v-4C47,22.9,46.1,22,45,22z"/>
	<circle fill="#37474F" cx="24" cy="38" r="2"/>
</g>
</svg>