<?xml version="1.0" encoding="utf-8"?><!--
  ~ CoreShop.
  ~
  ~ This source file is subject to the GNU General Public License version 3 (GPLv3)
  ~ For the full copyright and license information, please view the LICENSE.md and gpl-3.0.txt
  ~ files that are distributed with this source code.
  ~
  ~ @copyright  Copyright (c) 2015-2017 Dominik Pfaffenbauer (https://www.pfaffenbauer.at)
  ~ @license    https://www.coreshop.org/license     GNU General Public License version 3 (GPLv3)
  ~
  -->

<!-- Generator: Adobe Illustrator 18.1.1, SVG Export Plug-In . SVG Version: 6.00 Build 0)  --><svg xmlns="http://www.w3.org/2000/svg" xmlns:xlink="http://www.w3.org/1999/xlink" version="1.1" x="0px" y="0px" viewBox="0 0 48 48" enable-background="new 0 0 48 48" xml:space="preserve" width="48" height="48" style="fill: rgb(241, 196, 15);">
<path fill="#2196F3" d="M10,42h28c2.2,0,4-1.8,4-4V15.7c0-1.6-1-3.1-2.6-3.7L24,6L8.6,12C7,12.6,6,14.1,6,15.7V38  C6,40.2,7.8,42,10,42z"/>
<path fill="#CFD8DC" d="M33,18H15c-1.1,0-2,0.9-2,2v12c0,1.1,0.9,2,2,2h18c1.1,0,2-0.9,2-2V20C35,18.9,34.1,18,33,18z"/>
<path fill="#8E9496" d="M33,18H15c-1.1,0-2,0.9-2,2v1l11,8l11-8v-1C35,18.9,34.1,18,33,18z"/>
<path fill="#EBEFF1" d="M33,18H15c-1.1,0-2,0.9-2,2v1l11,6l11-6v-1C35,18.9,34.1,18,33,18z"/>
</svg>