<?xml version="1.0" encoding="utf-8"?><!--
  ~ CoreShop.
  ~
  ~ This source file is subject to the GNU General Public License version 3 (GPLv3)
  ~ For the full copyright and license information, please view the LICENSE.md and gpl-3.0.txt
  ~ files that are distributed with this source code.
  ~
  ~ @copyright  Copyright (c) 2015-2017 Dominik Pfaffenbauer (https://www.pfaffenbauer.at)
  ~ @license    https://www.coreshop.org/license     GNU General Public License version 3 (GPLv3)
  ~
  -->

<!-- Generator: Adobe Illustrator 18.1.1, SVG Export Plug-In . SVG Version: 6.00 Build 0)  --><svg xmlns="http://www.w3.org/2000/svg" xmlns:xlink="http://www.w3.org/1999/xlink" version="1.1" id="Layer_1" x="0px" y="0px" viewBox="0 0 48 48" enable-background="new 0 0 48 48" xml:space="preserve"  >
<path fill="#FFC107" d="M42,36H28V16c0-1.1,0.9-2,2-2h8c0.6,0,1.2,0.3,1.6,0.8l6,7.7c0.3,0.4,0.4,0.8,0.4,1.2V32  C46,34.2,44.2,36,42,36z"/>
<g>
	<path fill="#9575CD" d="M6,36h22V12c0-2.2-1.8-4-4-4H7c-2.8,0-5,2.2-5,5v19C2,34.2,3.8,36,6,36z"/>
</g>
<g>
	<circle fill="#37474F" cx="37" cy="36" r="5"/>
	<circle fill="#37474F" cx="14" cy="36" r="5"/>
</g>
<g>
	<circle fill="#78909C" cx="37" cy="36" r="2.5"/>
	<circle fill="#78909C" cx="14" cy="36" r="2.5"/>
</g>
<path fill="#455A64" d="M42,26h-3.6c-0.3,0-0.5-0.1-0.7-0.3l-1.4-1.4c-0.2-0.2-0.4-0.3-0.7-0.3H32c-0.6,0-1-0.4-1-1v-6  c0-0.6,0.4-1,1-1h5.5c0.3,0,0.6,0.1,0.8,0.4l4.5,5.4c0.1,0.2,0.2,0.4,0.2,0.6V25C43,25.6,42.6,26,42,26z"/>
<path fill="#FFFFFF" d="M15,11c-5,0-9,4-9,9c0,5,4,9,9,9s9-4,9-9C24,15,20,11,15,11z M15,21c-0.6,0-1-0.4-1-1s0.4-1,1-1s1,0.4,1,1  S15.6,21,15,21z"/>
<path fill="#37474F" d="M16.9,20.5c0-0.2,0.1-0.3,0.1-0.5c0-0.7-0.4-1.4-1-1.7V13h-2v5.3c-0.6,0.3-1,1-1,1.7c0,1.1,0.9,2,2,2  c0.2,0,0.3,0,0.5-0.1l2.3,2.3l1.4-1.4L16.9,20.5z M15,21c-0.6,0-1-0.4-1-1s0.4-1,1-1s1,0.4,1,1S15.6,21,15,21z"/>
</svg>