<?xml version="1.0" encoding="utf-8"?><!--
  ~ CoreShop.
  ~
  ~ This source file is subject to the GNU General Public License version 3 (GPLv3)
  ~ For the full copyright and license information, please view the LICENSE.md and gpl-3.0.txt
  ~ files that are distributed with this source code.
  ~
  ~ @copyright  Copyright (c) 2015-2017 Dominik Pfaffenbauer (https://www.pfaffenbauer.at)
  ~ @license    https://www.coreshop.org/license     GNU General Public License version 3 (GPLv3)
  ~
  -->

<!-- Generator: Adobe Illustrator 19.1.1, SVG Export Plug-In . SVG Version: 6.00 Build 0)  --><svg xmlns="http://www.w3.org/2000/svg" xmlns:xlink="http://www.w3.org/1999/xlink" version="1.1" x="0px" y="0px" viewBox="0 0 48 48" enable-background="new 0 0 48 48" xml:space="preserve" style="fill: rgb(241, 196, 15);">
<path fill="#FFA000" d="M28,34H2.9c0,0-1.9,0.1-1.9-2s0-5,0-5h27V34z"/>
<path fill="#FFC107" d="M45,36H27c0,0,0-16,0-18c0-2,2-2,2-2h12.6c0.9,0,1.6,0.6,1.9,1.4L47,26v8C47,35.1,46.1,36,45,36"/>
<path fill="#7A1A04" d="M43,26h-7c-0.6,0-1-0.4-1-1v-6c0-0.6,0.4-1,1-1h5c0.4,0,0.8,0.3,0.9,0.7l2,5c0,0.1,0.1,0.2,0.1,0.3v1  C44,25.6,43.6,26,43,26"/>
<path fill="#607D8B" d="M7,17.2V9H5v9c0,0,0,1,1,1c0.6,0,1,0.4,1,1s-0.4,1-1,1s-1-0.4-1-1H3c0,1.7,1.3,3,3,3s3-1.3,3-3  C9,18.7,8.2,17.6,7,17.2z"/>
<polygon fill="none" stroke="#B0BEC5" stroke-width="2" stroke-linecap="round" stroke-linejoin="round" stroke-miterlimit="10" points="  7,8 6,9 22,26 24,23 "/>
<path fill="#90A4AE" d="M38,37H12v-4h26V37z M18,27h7v-4h-7V27z"/>
<path fill="#455A64" d="M16,36c0,2.8-2.2,5-5,5s-5-2.2-5-5c0-2.8,2.2-5,5-5S16,33.2,16,36 M42,36c0-2.8-2.2-5-5-5s-5,2.2-5,5  c0,2.8,2.2,5,5,5S42,38.8,42,36"/>
<path fill="#CFD8DC" d="M13,36c0,1.1-0.9,2-2,2c-1.1,0-2-0.9-2-2c0-1.1,0.9-2,2-2C12.1,34,13,34.9,13,36 M39,36c0-1.1-0.9-2-2-2  c-1.1,0-2,0.9-2,2c0,1.1,0.9,2,2,2C38.1,38,39,37.1,39,36"/>
</svg>