<?xml version="1.0" encoding="UTF-8"?>
<svg xmlns="http://www.w3.org/2000/svg" xmlns:xlink="http://www.w3.org/1999/xlink" viewBox="0 0 48 48" version="1.1">
<g id="surface1">
<path style=" fill:#BBDEFB;" d="M 42 5 L 6 5 C 3.789063 5 2 6.789063 2 9 L 2 39 C 2 41.210938 3.789063 43 6 43 L 42 43 C 44.210938 43 46 41.210938 46 39 L 46 9 C 46 6.789063 44.210938 5 42 5 Z "/>
<path style=" fill:#1E88E5;" d="M 6 9 L 42 9 L 42 39 L 6 39 Z "/>
<path style=" fill:#FFF59D;" d="M 13 17.5 C 13 19.4375 14.566406 21 16.496094 21 C 18.433594 21 20 19.4375 20 17.5 C 20 15.566406 18.433594 14 16.496094 14 C 14.566406 14 13 15.566406 13 17.5 "/>
<path style=" fill:#E3F2FD;" d="M 24 26 C 24 23.238281 26.234375 21 29.003906 21 C 31.765625 21 34 23.238281 34 26 C 34 28.761719 31.765625 31 29.003906 31 C 26.234375 31 24 28.761719 24 26 Z "/>
<path style=" fill:#E3F2FD;" d="M 19 27 C 19 24.789063 20.789063 23 23 23 C 25.210938 23 27 24.789063 27 27 C 27 29.210938 25.210938 31 23 31 C 20.789063 31 19 29.210938 19 27 Z "/>
<path style=" fill:#E3F2FD;" d="M 26.5625 34 C 24.609375 34 30.507813 27 32.460938 27 C 34.414063 27 36 28.566406 36 30.503906 C 36 32.4375 34.414063 34 32.464844 34 C 30.507813 34 28.925781 34 26.5625 34 Z "/>
<path style=" fill:#E3F2FD;" d="M 13.832031 30.503906 C 13.832031 28.566406 15.414063 27 17.371094 27 C 23.265625 27 25.222656 34 23.265625 34 C 20.90625 34 19.324219 34 17.371094 34 C 15.414063 34 13.832031 32.4375 13.832031 30.503906 Z "/>
<path style=" fill:#E3F2FD;" d="M 31.457031 34 L 17.320313 34 L 17.320313 29.339844 L 31.457031 27.007813 Z "/>
</g>
</svg>
