<?xml version="1.0" encoding="iso-8859-1"?>
<!-- Generator: Adobe Illustrator 21.1.0, SVG Export Plug-In . SVG Version: 6.00 Build 0)  -->
<svg xmlns="http://www.w3.org/2000/svg" xmlns:xlink="http://www.w3.org/1999/xlink" version="1.1" id="Layer_1" x="0px" y="0px" viewBox="0 0 48 48" style="enable-background:new 0 0 48 48;" xml:space="preserve">
<g>
</g>
<polygon style="fill:#BDBDBD;" points="12,22 2,31 12,40 12,34 42,34 42,28.003 12,28.003 "/>
<polygon style="fill:#BDBDBD;" points="36,25.997 46,16.997 36,7.997 36,14 6,14 6,20 36,20 "/>
<path style="fill:#EEEEEE;" d="M32.157,14H16.45c-1.01,1.317-1.558,2.96-1.558,4.847c0,0.393,0.028,0.777,0.078,1.153H34  C34,18.031,33.582,15.803,32.157,14z"/>
<path style="fill:#EEEEEE;" d="M33.873,28H14c0,2.392,0.619,4.425,1.767,6h16.802C33.447,32.808,34,31.297,34,29.41  C34,28.922,33.948,28.456,33.873,28z"/>
<path style="fill:#2E7D32;" d="M24.981,22.211c0,0-3.403-1.017-3.403-3.349c0-2.721,2.301-2.697,2.788-2.697  c0.897,0,2.951,0.485,2.951,3.836H32c0-6.5-5.084-7.084-6.667-7.32V9.332h-2.667v3.387c-1.733,0.3-5.775,1.487-5.775,6.128  c0,4.957,4.927,6.317,5.335,6.488c2.856,1.192,5.089,1.552,5.089,4.109c0,2.581-2.572,2.649-3.08,2.649  c-0.444,0-3.549,0.113-3.549-4.094H16c0.001,6.572,5.163,7.414,6.667,7.58v3.085h2.667v-3.069C26.305,35.506,32,34.804,32,29.41  C32,24.222,26.031,22.611,24.981,22.211z"/>
</svg>
