<?xml version="1.0" encoding="UTF-8"?>
<svg xmlns="http://www.w3.org/2000/svg" xmlns:xlink="http://www.w3.org/1999/xlink" viewBox="0 0 40 40" version="1.1">
<g id="surface1">
<path fill="#DFF0FE" d="M 14.5 31.5 L 14.5 15 C 14.5 11.96875 12.03125 9.5 9 9.5 L 7.5 9.5 L 7.5 12.914063 L 1.769531 8 L 7.5 3.085938 L 7.5 6.5 L 9.003906 6.5 C 13.6875 6.5 17.5 10.3125 17.5 14.996094 L 17.5 31.5 Z "/>
<path fill="#4788C7" d="M 7 4.175781 L 7 7 L 9.003906 7 C 13.414063 7 17 10.585938 17 14.996094 L 17 31 L 15 31 L 15 15 C 15 11.691406 12.308594 9 9 9 L 7 9 L 7 11.824219 L 2.535156 8 L 7 4.175781 M 8 2 L 1 8 L 8 14 L 8 10 L 9 10 C 11.761719 10 14 12.238281 14 15 L 14 32 L 18 32 L 18 14.996094 C 18 10.027344 13.972656 6 9.003906 6 L 8 6 Z "/>
<path fill="#DFF0FE" d="M 22.5 31.5 L 22.5 14.996094 C 22.5 10.3125 26.3125 6.5 30.996094 6.5 L 32.5 6.5 L 32.5 3.085938 L 38.230469 8 L 32.5 12.914063 L 32.5 9.5 L 31 9.5 C 27.96875 9.5 25.5 11.96875 25.5 15 L 25.5 31.5 Z "/>
<path fill="#4788C7" d="M 33 4.175781 L 37.464844 8 L 33 11.824219 L 33 9 L 31 9 C 27.691406 9 25 11.691406 25 15 L 25 31 L 23 31 L 23 14.996094 C 23 10.585938 26.585938 7 30.996094 7 L 33 7 L 33 4.175781 M 32 2 L 32 6 L 30.996094 6 C 26.027344 6 22 10.027344 22 14.996094 L 22 32 L 26 32 L 26 15 C 26 12.238281 28.238281 10 31 10 L 32 10 L 32 14 L 39 8 Z "/>
<path fill="#98CCFD" d="M 6 37.5 C 4.621094 37.5 3.5 36.378906 3.5 35 L 3.5 21 C 3.5 19.792969 2.640625 18.78125 1.5 18.550781 L 1.5 15.523438 C 4.300781 15.773438 6.5 18.136719 6.5 21 L 6.5 34.5 L 33.5 34.5 L 33.5 21 C 33.5 18.136719 35.699219 15.777344 38.5 15.523438 L 38.5 18.550781 C 37.359375 18.78125 36.5 19.792969 36.5 21 L 36.5 35 C 36.5 36.375 35.378906 37.496094 34 37.5 Z "/>
<path fill="#4788C7" d="M 38 16.101563 L 38 18.171875 C 36.835938 18.585938 36 19.695313 36 21 L 36 35 C 36 36.101563 35.101563 36.996094 34 37 L 6 37 C 4.898438 37 4 36.101563 4 35 L 4 21 C 4 19.695313 3.164063 18.585938 2 18.171875 L 2 16.101563 C 4.277344 16.566406 6 18.585938 6 21 L 6 35 L 34 35 L 34 21 C 34 18.585938 35.722656 16.566406 38 16.101563 M 39 15 C 35.6875 15 33 17.6875 33 21 L 33 34 L 7 34 L 7 21 C 7 17.6875 4.3125 15 1 15 L 1 19 C 2.105469 19 3 19.894531 3 21 L 3 35 C 3 36.65625 4.34375 38 6 38 L 34 38 C 35.652344 37.996094 37 36.652344 37 35 L 37 21 C 37 19.898438 37.898438 19 39 19 Z "/>
</g>
</svg>
