<?xml version="1.0" encoding="UTF-8" standalone="no"?>
<svg
   xmlns:dc="http://purl.org/dc/elements/1.1/"
   xmlns:cc="http://creativecommons.org/ns#"
   xmlns:rdf="http://www.w3.org/1999/02/22-rdf-syntax-ns#"
   xmlns:svg="http://www.w3.org/2000/svg"
   xmlns="http://www.w3.org/2000/svg"
   xmlns:sodipodi="http://sodipodi.sourceforge.net/DTD/sodipodi-0.dtd"
   xmlns:inkscape="http://www.inkscape.org/namespaces/inkscape"
   version="1"
   viewBox="0 0 48 48"
   enable-background="new 0 0 48 48"
   id="svg2"
   inkscape:version="0.91 r13725"
   sodipodi:docname="dynamicdropdownmultiple-logo.svg">
  <metadata
     id="metadata16">
    <rdf:RDF>
      <cc:Work
         rdf:about="">
        <dc:format>image/svg+xml</dc:format>
        <dc:type
           rdf:resource="http://purl.org/dc/dcmitype/StillImage" />
        <dc:title></dc:title>
      </cc:Work>
    </rdf:RDF>
  </metadata>
  <defs
     id="defs14" />
  <sodipodi:namedview
     pagecolor="#ffffff"
     bordercolor="#666666"
     borderopacity="1"
     objecttolerance="10"
     gridtolerance="10"
     guidetolerance="10"
     inkscape:pageopacity="0"
     inkscape:pageshadow="2"
     inkscape:window-width="1920"
     inkscape:window-height="1026"
     id="namedview12"
     showgrid="false"
     inkscape:zoom="9.8333333"
     inkscape:cx="30.538583"
     inkscape:cy="5.5160503"
     inkscape:window-x="0"
     inkscape:window-y="840"
     inkscape:window-maximized="1"
     inkscape:current-layer="svg2" />
  <g
     fill="#D1C4E9"
     id="g4">
    <path
       d="M38,7H10C8.9,7,8,7.9,8,9v6c0,1.1,0.9,2,2,2h28c1.1,0,2-0.9,2-2V9C40,7.9,39.1,7,38,7z"
       id="path6" />
    <path
       d="M38,19H10c-1.1,0-2,0.9-2,2v6c0,1.1,0.9,2,2,2h28c1.1,0,2-0.9,2-2v-6C40,19.9,39.1,19,38,19z"
       id="path8" />
    <path
       d="M38,31H10c-1.1,0-2,0.9-2,2v6c0,1.1,0.9,2,2,2h28c1.1,0,2-0.9,2-2v-6C40,31.9,39.1,31,38,31z"
       id="path10" />
  </g>
  <polygon
     transform="matrix(-0.6486903,0,0,-0.6486903,51.067287,55.622518)"
     style="fill:#2196f3"
     points="8.1,34 24,18.1 39.9,34 43,30.9 24,12 5,30.9 "
     id="polygon4" />
  <polygon
     transform="matrix(-0.6486903,0,0,-0.6486903,51.161788,48.682589)"
     style="fill:#2196f3"
     points="8.1,34 24,18.1 39.9,34 43,30.9 24,12 5,30.9 "
     id="polygon4-3" />
  <polygon
     transform="matrix(-0.6486903,0,0,-0.6486903,51.263482,41.46225)"
     style="fill:#2196f3"
     points="8.1,34 24,18.1 39.9,34 43,30.9 24,12 5,30.9 "
     id="polygon4-6" />
</svg>
