<?xml version="1.0" encoding="UTF-8"?>
<svg xmlns="http://www.w3.org/2000/svg" xmlns:xlink="http://www.w3.org/1999/xlink" viewBox="0 0 48 48" version="1.1">
<g id="surface1">
<path style=" fill:#9C1818;" d="M 28 12.101563 L 29 12.101563 L 29 22.101563 L 28 22.101563 Z "/>
<path style=" fill:#9C1818;" d="M 31 14.398438 L 32 14.398438 L 32 22 L 31 22 Z "/>
<path style=" fill:#9C1818;" d="M 34 15.800781 L 35 15.800781 L 35 22 L 34 22 Z "/>
<path style=" fill:#9C1818;" d="M 37 17.101563 L 38 17.101563 L 38 22.101563 L 37 22.101563 Z "/>
<path style=" fill:#9C1818;" d="M 40 17.601563 L 41 17.601563 L 41 22 L 40 22 Z "/>
<path style=" fill:#9C1818;" d="M 19 12.101563 L 20 12.101563 L 20 22.101563 L 19 22.101563 Z "/>
<path style=" fill:#9C1818;" d="M 16 14.398438 L 17 14.398438 L 17 22 L 16 22 Z "/>
<path style=" fill:#9C1818;" d="M 13 15.800781 L 14 15.800781 L 14 22 L 13 22 Z "/>
<path style=" fill:#9C1818;" d="M 10 17.101563 L 11 17.101563 L 11 22.101563 L 10 22.101563 Z "/>
<path style=" fill:#9C1818;" d="M 7 17.601563 L 8 17.601563 L 8 22 L 7 22 Z "/>
<path style=" fill:#9C1818;" d="M 44 23 L 4 23 L 4 25 C 6.199219 25 8 26.800781 8 29 L 8 35 L 14 35 L 14 29 C 14 26.800781 15.800781 25 18 25 L 30 25 C 32.199219 25 34 26.800781 34 29 L 34 35 L 40 35 L 40 29 C 40 26.800781 41.800781 25 44 25 Z "/>
<path style=" fill:#81D4FA;" d="M 4 35.300781 L 44 35.300781 L 44 42 L 4 42 Z "/>
<path style=" fill:#03A9F4;" d="M 42 40 L 40 40 C 40 41.101563 39.101563 42 38 42 C 36.898438 42 36 41.101563 36 40 L 34 40 C 34 41.101563 33.101563 42 32 42 C 30.898438 42 30 41.101563 30 40 L 28 40 C 28 41.101563 27.101563 42 26 42 C 24.898438 42 24 41.101563 24 40 L 22 40 C 22 41.101563 21.101563 42 20 42 C 18.898438 42 18 41.101563 18 40 L 16 40 C 16 41.101563 15.101563 42 14 42 C 12.898438 42 12 41.101563 12 40 L 10 40 C 10 41.101563 9.101563 42 8 42 C 6.898438 42 6 41.101563 6 40 L 4 40 L 4 43.398438 C 4.398438 43.199219 4.699219 42.898438 5 42.601563 C 5.699219 43.5 6.800781 44 8 44 C 9.199219 44 10.300781 43.5 11 42.601563 C 11.699219 43.398438 12.800781 44 14 44 C 15.199219 44 16.300781 43.5 17 42.601563 C 17.699219 43.398438 18.800781 44 20 44 C 21.199219 44 22.300781 43.5 23 42.601563 C 23.699219 43.398438 24.800781 44 26 44 C 27.199219 44 28.300781 43.5 29 42.601563 C 29.699219 43.398438 30.800781 44 32 44 C 33.199219 44 34.300781 43.5 35 42.601563 C 35.699219 43.398438 36.800781 44 38 44 C 39.199219 44 40.300781 43.5 41 42.601563 C 41.699219 43.398438 42.800781 44 44 44 L 44 42 C 42.898438 42 42 41.101563 42 40 Z "/>
<path style=" fill:#03A9F4;" d="M 42 33 L 40 33 C 40 34.101563 39.101563 35 38 35 C 36.898438 35 36 34.101563 36 33 L 34 33 C 34 34.101563 33.101563 35 32 35 C 30.898438 35 30 34.101563 30 33 L 28 33 C 28 34.101563 27.101563 35 26 35 C 24.898438 35 24 34.101563 24 33 L 22 33 C 22 34.101563 21.101563 35 20 35 C 18.898438 35 18 34.101563 18 33 L 16 33 C 16 34.101563 15.101563 35 14 35 C 12.898438 35 12 34.101563 12 33 L 10 33 C 10 34.101563 9.101563 35 8 35 C 6.898438 35 6 34.101563 6 33 L 4 33 L 4 36.398438 C 4.398438 36.199219 4.699219 35.898438 5 35.601563 C 5.699219 36.5 6.800781 37 8 37 C 9.199219 37 10.300781 36.5 11 35.601563 C 11.699219 36.398438 12.800781 37 14 37 C 15.199219 37 16.300781 36.5 17 35.601563 C 17.699219 36.398438 18.800781 37 20 37 C 21.199219 37 22.300781 36.5 23 35.601563 C 23.699219 36.398438 24.800781 37 26 37 C 27.199219 37 28.300781 36.5 29 35.601563 C 29.699219 36.398438 30.800781 37 32 37 C 33.199219 37 34.300781 36.5 35 35.601563 C 35.699219 36.398438 36.800781 37 38 37 C 39.199219 37 40.300781 36.5 41 35.601563 C 41.699219 36.398438 42.800781 37 44 37 L 44 35 C 42.898438 35 42 34.101563 42 33 Z "/>
<path style=" fill:#C62828;" d="M 4 22 L 44 22 L 44 25 L 4 25 Z "/>
<path style=" fill:#C62828;" d="M 26 7.601563 C 25.800781 6.699219 25 6 24 6 C 23 6 22.199219 6.699219 22 7.699219 C 21.398438 8.800781 16.300781 17 4 17 L 4 19 C 13.800781 19 19.398438 14.300781 22 11.199219 L 22 22 L 23 22 L 23 20 L 25 20 L 25 22 L 26 22 L 26 10.898438 C 28.800781 14 34.601563 19 44 19 L 44 17 C 32.699219 17 26.800781 8.898438 26 7.601563 Z M 25 18 L 23 18 L 23 16 L 25 16 Z M 25 14 L 23 14 L 23 12 L 25 12 Z M 25 10 L 23 10 L 23 8 L 25 8 Z "/>
</g>
</svg>
