<?xml version="1.0" encoding="UTF-8" standalone="no"?>
<svg
   xmlns:dc="http://purl.org/dc/elements/1.1/"
   xmlns:cc="http://creativecommons.org/ns#"
   xmlns:rdf="http://www.w3.org/1999/02/22-rdf-syntax-ns#"
   xmlns:svg="http://www.w3.org/2000/svg"
   xmlns="http://www.w3.org/2000/svg"
   xmlns:sodipodi="http://sodipodi.sourceforge.net/DTD/sodipodi-0.dtd"
   xmlns:inkscape="http://www.inkscape.org/namespaces/inkscape"
   version="1"
   viewBox="0 0 48 48"
   enable-background="new 0 0 48 48"
   id="svg2"
   inkscape:version="0.91 r13725"
   sodipodi:docname="dynamicdropdownitemselector-logo.svg">
  <metadata
     id="metadata16">
    <rdf:RDF>
      <cc:Work
         rdf:about="">
        <dc:format>image/svg+xml</dc:format>
        <dc:type
           rdf:resource="http://purl.org/dc/dcmitype/StillImage" />
        <dc:title></dc:title>
      </cc:Work>
    </rdf:RDF>
  </metadata>
  <defs
     id="defs14" />
  <sodipodi:namedview
     pagecolor="#ffffff"
     bordercolor="#666666"
     borderopacity="1"
     objecttolerance="10"
     gridtolerance="10"
     guidetolerance="10"
     inkscape:pageopacity="0"
     inkscape:pageshadow="2"
     inkscape:window-width="1920"
     inkscape:window-height="1026"
     id="namedview12"
     showgrid="false"
     inkscape:zoom="9.8333333"
     inkscape:cx="30.538583"
     inkscape:cy="5.5160503"
     inkscape:window-x="3000"
     inkscape:window-y="840"
     inkscape:window-maximized="1"
     inkscape:current-layer="svg2" />
  <g
     fill="#D1C4E9"
     id="g4">
    <path
       d="M38,7H10C8.9,7,8,7.9,8,9v6c0,1.1,0.9,2,2,2h28c1.1,0,2-0.9,2-2V9C40,7.9,39.1,7,38,7z"
       id="path6" />
    <path
       d="M38,19H10c-1.1,0-2,0.9-2,2v6c0,1.1,0.9,2,2,2h28c1.1,0,2-0.9,2-2v-6C40,19.9,39.1,19,38,19z"
       id="path8" />
    <path
       d="M38,31H10c-1.1,0-2,0.9-2,2v6c0,1.1,0.9,2,2,2h28c1.1,0,2-0.9,2-2v-6C40,31.9,39.1,31,38,31z"
       id="path10" />
  </g>
  <g
     transform="translate(0.05508519,10.477966)"
     id="g4238"
     style="fill:#00aad4">
    <rect
       x="2"
       y="12.2"
       class="st0"
       width="17.4"
       height="24"
       id="rect4240"
       style="fill:#00aad4" />
    <g
       id="g4242"
       style="fill:#00aad4">
      <rect
         x="29.1"
         y="12.2"
         class="st0"
         width="17.4"
         height="24"
         id="rect4244"
         style="fill:#00aad4" />
    </g>
  </g>
  <g
     transform="translate(0.05508519,10.477966)"
     id="g4246"
     style="fill:#5f5fd3">
    <polygon
       class="st1"
       points="21,31.1 28.1,24 21,16.9 "
       id="polygon4248"
       style="fill:#5f5fd3" />
    <rect
       x="9.6999998"
       y="22"
       class="st1"
       width="14.1"
       height="4"
       id="rect4250"
       style="fill:#5f5fd3" />
  </g>
</svg>
