<?xml version="1.0" encoding="UTF-8"?>
<svg xmlns="http://www.w3.org/2000/svg" xmlns:xlink="http://www.w3.org/1999/xlink" viewBox="0 0 64 64" version="1.1">
<g id="surface1">
<path style=" fill:#C2CDE7;" d="M 9 7 L 53 7 C 54.105469 7 55 7.894531 55 9 L 55 55 C 55 56.105469 54.105469 57 53 57 L 9 57 C 7.894531 57 7 56.105469 7 55 L 7 9 C 7 7.894531 7.894531 7 9 7 Z "/>
<path style=" fill:#ACB7D0;" d="M 11 52 L 51 52 C 53.210938 52 55 53.789063 55 56 C 55 56.550781 54.550781 57 54 57 L 8 57 C 7.449219 57 7 56.550781 7 56 C 7 53.789063 8.789063 52 11 52 Z "/>
<path style=" fill:#8D6C9F;" d="M 51 30 L 40.339844 30 L 43.699219 26.640625 C 44.039063 26.242188 44.015625 25.652344 43.648438 25.28125 C 43.277344 24.914063 42.6875 24.890625 42.289063 25.230469 L 37.21875 30.300781 C 36.832031 30.691406 36.832031 31.320313 37.21875 31.710938 L 42.289063 36.78125 C 42.6875 37.121094 43.277344 37.097656 43.648438 36.726563 C 44.015625 36.359375 44.039063 35.765625 43.699219 35.371094 L 40.339844 32 L 51 32 C 51.550781 32 52 31.550781 52 31 C 52 30.449219 51.550781 30 51 30 Z "/>
<path style=" fill:#8D6C9F;" d="M 24.78125 30.289063 L 19.710938 25.21875 C 19.3125 24.878906 18.722656 24.902344 18.351563 25.273438 C 17.984375 25.640625 17.960938 26.234375 18.300781 26.628906 L 21.660156 30 L 11 30 C 10.449219 30 10 30.449219 10 31 C 10 31.550781 10.449219 32 11 32 L 21.660156 32 L 18.300781 35.359375 C 18.015625 35.605469 17.890625 35.988281 17.976563 36.351563 C 18.066406 36.71875 18.351563 37.003906 18.714844 37.09375 C 19.082031 37.179688 19.464844 37.054688 19.710938 36.769531 L 24.78125 31.699219 C 25.167969 31.308594 25.167969 30.679688 24.78125 30.289063 Z "/>
<path style=" fill:#8D6C9F;" d="M 31.710938 37.21875 C 31.320313 36.832031 30.691406 36.832031 30.300781 37.21875 L 25.230469 42.289063 C 24.890625 42.6875 24.914063 43.277344 25.28125 43.648438 C 25.652344 44.015625 26.242188 44.039063 26.640625 43.699219 L 30 40.339844 L 30 53 C 30 53.550781 30.449219 54 31 54 C 31.550781 54 32 53.550781 32 53 L 32 40.339844 L 35.359375 43.699219 C 35.757813 44.039063 36.347656 44.015625 36.71875 43.648438 C 37.085938 43.277344 37.109375 42.6875 36.769531 42.289063 Z "/>
<path style=" fill:#8D6C9F;" d="M 30.289063 24.78125 C 30.679688 25.167969 31.308594 25.167969 31.699219 24.78125 L 36.769531 19.710938 C 37.109375 19.3125 37.085938 18.722656 36.71875 18.351563 C 36.347656 17.984375 35.757813 17.960938 35.359375 18.300781 L 32 21.660156 L 32 11 C 32 10.449219 31.550781 10 31 10 C 30.449219 10 30 10.449219 30 11 L 30 21.660156 L 26.640625 18.300781 C 26.242188 17.960938 25.652344 17.984375 25.28125 18.351563 C 24.914063 18.722656 24.890625 19.3125 25.230469 19.710938 Z "/>
<path style=" fill:#8D6C9F;" d="M 33 31 C 33 32.105469 32.105469 33 31 33 C 29.894531 33 29 32.105469 29 31 C 29 29.894531 29.894531 29 31 29 C 32.105469 29 33 29.894531 33 31 Z "/>
<path style=" fill:#8D6C9F;" d="M 53 6 L 9 6 C 7.34375 6 6 7.34375 6 9 L 6 55 C 6 56.65625 7.34375 58 9 58 L 53 58 C 54.65625 58 56 56.65625 56 55 L 56 9 C 56 7.34375 54.65625 6 53 6 Z M 54 55 C 54 55.550781 53.550781 56 53 56 L 9 56 C 8.449219 56 8 55.550781 8 55 L 8 9 C 8 8.449219 8.449219 8 9 8 L 53 8 C 53.550781 8 54 8.449219 54 9 Z "/>
<path style=" fill:#8D6C9F;" d="M 16 50 C 15.449219 50 15 50.449219 15 51 L 15 53 C 15 53.550781 15.449219 54 16 54 C 16.550781 54 17 53.550781 17 53 L 17 51 C 17 50.449219 16.550781 50 16 50 Z "/>
<path style=" fill:#8D6C9F;" d="M 11 50 C 10.449219 50 10 50.449219 10 51 L 10 53 C 10 53.550781 10.449219 54 11 54 C 11.550781 54 12 53.550781 12 53 L 12 51 C 12 50.449219 11.550781 50 11 50 Z "/>
<path style=" fill:#8D6C9F;" d="M 36 50 C 35.449219 50 35 50.449219 35 51 L 35 53 C 35 53.550781 35.449219 54 36 54 C 36.550781 54 37 53.550781 37 53 L 37 51 C 37 50.449219 36.550781 50 36 50 Z "/>
<path style=" fill:#8D6C9F;" d="M 41 50 C 40.449219 50 40 50.449219 40 51 L 40 53 C 40 53.550781 40.449219 54 41 54 C 41.550781 54 42 53.550781 42 53 L 42 51 C 42 50.449219 41.550781 50 41 50 Z "/>
<path style=" fill:#8D6C9F;" d="M 46 50 C 45.449219 50 45 50.449219 45 51 L 45 53 C 45 53.550781 45.449219 54 46 54 C 46.550781 54 47 53.550781 47 53 L 47 51 C 47 50.449219 46.550781 50 46 50 Z "/>
<path style=" fill:#8D6C9F;" d="M 51 50 C 50.449219 50 50 50.449219 50 51 L 50 53 C 50 53.550781 50.449219 54 51 54 C 51.550781 54 52 53.550781 52 53 L 52 51 C 52 50.449219 51.550781 50 51 50 Z "/>
<path style=" fill:#8D6C9F;" d="M 21 50 C 20.449219 50 20 50.449219 20 51 L 20 53 C 20 53.550781 20.449219 54 21 54 C 21.550781 54 22 53.550781 22 53 L 22 51 C 22 50.449219 21.550781 50 21 50 Z "/>
<path style=" fill:#8D6C9F;" d="M 26 50 C 25.449219 50 25 50.449219 25 51 L 25 53 C 25 53.550781 25.449219 54 26 54 C 26.550781 54 27 53.550781 27 53 L 27 51 C 27 50.449219 26.550781 50 26 50 Z "/>
</g>
</svg>
