<svg x="0" y="0" version="1.1" xmlns="http://www.w3.org/2000/svg" xmlns:xlink="http://www.w3.org/1999/xlink" viewBox="0 0 48 48"><g fill="none" stroke="none" stroke-width="1" stroke-linecap="butt" stroke-linejoin="miter" stroke-miterlimit="10" stroke-dasharray="" stroke-dashoffset="0" font-family="sans-serif" font-weight="normal" font-size="12" text-anchor="start" mix-blend-mode="normal"><g><g><path d="M0,48l0,-48l48,0l0,48z" fill="none"/><g><path d="M40,10l-32,0c-2.209,0 -4,1.791 -4,4l0,20c0,2.209 1.791,4 4,4l32,0c2.209,0 4,-1.791 4,-4l0,-20c0,-2.209 -1.791,-4 -4,-4z" fill="#cfd8dc"/><path d="M44,14.025c0,-0.465 -0.095,-0.904 -0.24,-1.32l-19.76,14.32l-19.759,-14.32c-0.146,0.416 -0.241,0.856 -0.241,1.32l0,0.975l20,14.495l20,-14.495z" fill="#78909c"/></g><g><g id="IOS_copy"><path d="M48,38c0,5.5 -4.5,10 -10,10c-5.5,0 -10,-4.5 -10,-10c0,-5.5 4.5,-10 10,-10c5.5,0 10,4.5 10,10" fill="#00acc1"/><path d="M45,38c0,3.9 -3.1,7 -7,7c-3.9,0 -7,-3.1 -7,-7c0,-3.9 3.1,-7 7,-7c3.9,0 7,3.1 7,7" fill="#eeeeee"/><path d="M42.4,41.1l-2.9,-2.9c0,-0.1 0,-0.1 0,-0.2c0,-0.4 -0.2,-0.8 -0.5,-1.1l0,-3.9l-2,0l0,3.9c-0.3,0.3 -0.5,0.7 -0.5,1.1c0,0.8 0.7,1.5 1.5,1.5l0.1,0l2.9,2.9z" fill="#000000"/></g><path d="M27.16571,38c0,-5.98361 4.85067,-10.83429 10.83429,-10.83429c5.98361,0 10.83429,4.85067 10.83429,10.83429c0,5.98361 -4.85067,10.83429 -10.83429,10.83429c-5.98361,0 -10.83429,-4.85067 -10.83429,-10.83429z" fill="#ff0000" opacity="0"/></g></g></g></g></svg>