<!--
  ~ CoreShop.
  ~
  ~ This source file is subject to the GNU General Public License version 3 (GPLv3)
  ~ For the full copyright and license information, please view the LICENSE.md and gpl-3.0.txt
  ~ files that are distributed with this source code.
  ~
  ~ @copyright  Copyright (c) CoreShop GmbH (https://www.coreshop.org)
  ~ @license    https://www.coreshop.org/license     GPLv3 and CCL
  ~
  -->

<svg xmlns="http://www.w3.org/2000/svg" viewBox="0,0,256,256" fill-rule="nonzero">
    <g fill="none" fill-rule="nonzero" stroke="none" stroke-width="1" stroke-linecap="butt" stroke-linejoin="miter"
       stroke-miterlimit="10" stroke-dasharray="" stroke-dashoffset="0" font-family="none" font-weight="none"
       font-size="none" text-anchor="none" style="mix-blend-mode: normal">
        <g transform="scale(6.4,6.4)">
            <path d="M18,33.5c-1.378,0 -2.5,-1.122 -2.5,-2.5v-8.5h5v8.5c0,1.378 -1.122,2.5 -2.5,2.5z"
                  fill="white"></path>
            <path d="M20,23v8c0,1.103 -0.897,2 -2,2c-1.103,0 -2,-0.897 -2,-2v-8h4M21,22h-6v9c0,1.657 1.343,3 3,3c1.657,0 3,-1.343 3,-3v-9z"
                  fill="black"></path>
            <path d="M23,32.5c-1.378,0 -2.5,-1.122 -2.5,-2.5v-8.5h5v8.5c0,1.378 -1.122,2.5 -2.5,2.5z"
                  fill="white"></path>
            <path d="M25,22v8c0,1.103 -0.897,2 -2,2c-1.103,0 -2,-0.897 -2,-2v-8h4M26,21h-6v9c0,1.657 1.343,3 3,3c1.657,0 3,-1.343 3,-3v-9zM12.5,18c-1.933,0 -3.5,1.79086 -3.5,4c0,2.20914 1.567,4 3.5,4c1.933,0 3.5,-1.79086 3.5,-4c0,-2.20914 -1.567,-4 -3.5,-4z"
                  fill="black"></path>
            <path d="M28,30.5c-1.378,0 -2.5,-1.122 -2.5,-2.5v-8.5h5v8.5c0,1.378 -1.122,2.5 -2.5,2.5z"
                  fill="#ffffff"></path>
            <path d="M30,20v8c0,1.103 -0.897,2 -2,2c-1.103,0 -2,-0.897 -2,-2v-8h4M31,19h-6v9c0,1.657 1.343,3 3,3c1.657,0 3,-1.343 3,-3v-9z"
                  fill="black"></path>
            <path d="M14,24.5c-0.827,0 -1.5,-0.673 -1.5,-1.5v-15c0,-0.827 0.673,-1.5 1.5,-1.5h23c0.827,0 1.5,0.673 1.5,1.5v15c0,0.827 -0.673,1.5 -1.5,1.5z"
                  fill="white"></path>
            <path d="M37,7c0.551,0 1,0.449 1,1v15c0,0.551 -0.449,1 -1,1h-23c-0.551,0 -1,-0.449 -1,-1v-15c0,-0.551 0.449,-1 1,-1h23M37,6h-23c-1.105,0 -2,0.895 -2,2v15c0,1.105 0.895,2 2,2h23c1.105,0 2,-0.895 2,-2v-15c0,-1.105 -0.895,-2 -2,-2z"
                  fill="black"></path>
            <path d="M15,14h21v2h-21z" fill="black"></path>
            <path d="M1.5,33.5v-15.238l9.237,-6.413c0.292,-0.232 0.625,-0.349 0.964,-0.349h1.799v7.567l-2.222,2.639c-0.254,0.302 -0.31,0.708 -0.146,1.06c0.166,0.357 0.521,0.588 0.905,0.588c0.164,0 0.323,-0.041 0.474,-0.121l8.015,-5.253c0.444,-0.318 0.947,-0.48 1.471,-0.48c0.806,0 1.566,0.39 2.035,1.044c0.803,1.12 0.545,2.685 -0.576,3.488l-11.406,10.449c-0.787,0.651 -1.806,1.019 -2.852,1.019z"
                  fill="white"></path>
            <path d="M13,12v6.885l-2.105,2.499c-0.38,0.452 -0.463,1.062 -0.217,1.593c0.248,0.533 0.781,0.877 1.359,0.877c0.243,0 0.488,-0.062 0.708,-0.179l0.041,-0.022l0.039,-0.025l8.009,-5.254c0.343,-0.244 0.745,-0.374 1.163,-0.374c0.645,0 1.253,0.312 1.628,0.835c0.643,0.896 0.436,2.148 -0.46,2.791l-0.049,0.035l-0.044,0.041l-11.322,10.378c-0.716,0.593 -1.622,0.92 -2.552,0.92h-7.198v-14.477l9.022,-6.263l0.028,-0.019l0.027,-0.021c0.176,-0.142 0.398,-0.22 0.625,-0.22h1.298M14,11h-2.298c-0.454,0 -0.895,0.155 -1.249,0.438l-9.453,6.562v16h8.198c1.165,0 2.293,-0.407 3.19,-1.15l11.36,-10.412c1.347,-0.965 1.656,-2.839 0.69,-4.186c-0.586,-0.817 -1.507,-1.252 -2.441,-1.252c-0.605,0 -1.216,0.182 -1.745,0.562l-7.975,5.23c-0.081,0.043 -0.162,0.062 -0.239,0.062c-0.385,0 -0.673,-0.475 -0.378,-0.826l2.34,-2.778v-8.25z"
                  fill="black"></path>
            <g fill="black">
                <path d="M12,9h27v4h-27z"></path>
            </g>
            <g fill="black">
                <path d="M12,13h1v9h-1z"></path>
            </g>
            <g fill="white">
                <path d="M13,13h2v8l-2,1.318z"></path>
            </g>
            <g fill="white">
                <path d="M3,17.829l-2,1.388v13.783h2z"></path>
            </g>
        </g>
    </g>
    <g fill="none" fill-rule="nonzero" stroke="none" stroke-width="1" stroke-linecap="butt" stroke-linejoin="miter"
       stroke-miterlimit="10" stroke-dasharray="" stroke-dashoffset="0" font-family="none" font-weight="none"
       font-size="none" text-anchor="none" style="mix-blend-mode: normal">
        <g transform="translate(127.4,143.4) scale(6.4,6.4)" id="overlay">
            <g>
                <g fill="white">
                    <path d="M6.734,14.5h0.766v-4h-4v0.766l-2.719,-2.266l2.719,-2.266v0.766h4v-4h-0.766l2.266,-2.719l2.266,2.719h-0.766v4h4v-0.766l2.719,2.266l-2.719,2.266v-0.766h-4v4h0.766l-2.266,2.719z"></path>
                </g>
                <g fill="black">
                    <path d="M9,1.562l1.198,1.438h-0.198v1v3v1h1h3h1v-0.198l1.438,1.198l-1.438,1.198v-0.198h-1h-3h-1v1v3v1h0.198l-1.198,1.438l-1.198,-1.438h0.198v-1v-3v-1h-1h-3h-1v0.198l-1.438,-1.198l1.438,-1.198v0.198h1h3h1v-1v-3v-1h-0.198l1.198,-1.438M9,0l-3.333,4h1.333v3h-3v-1.333l-4,3.333l4,3.333v-1.333h3v3h-1.333l3.333,4l3.333,-4h-1.333v-3h3v1.333l4,-3.333l-4,-3.333v1.333h-3v-3h1.333l-3.333,-4z"></path>
                </g>
            </g>
        </g>
    </g>
</svg>