<!--
  ~ CoreShop.
  ~
  ~ This source file is subject to the GNU General Public License version 3 (GPLv3)
  ~ For the full copyright and license information, please view the LICENSE.md and gpl-3.0.txt
  ~ files that are distributed with this source code.
  ~
  ~ @copyright  Copyright (c) CoreShop GmbH (https://www.coreshop.org)
  ~ @license    https://www.coreshop.org/license     GPLv3 and CCL
  ~
  -->

<svg xmlns="http://www.w3.org/2000/svg" viewBox="0 0 40 40" width="30px" height="30px">
    <path fill="#e8d47b" d="M18,33.5c-1.378,0-2.5-1.122-2.5-2.5v-8.5h5V31C20.5,32.378,19.378,33.5,18,33.5z"/>
    <path fill="#ba9b48"
          d="M20,23v8c0,1.103-0.897,2-2,2s-2-0.897-2-2v-8H20 M21,22h-6v9c0,1.657,1.343,3,3,3s3-1.343,3-3V22 L21,22z"/>
    <path fill="#e8d47b" d="M23,32.5c-1.378,0-2.5-1.122-2.5-2.5v-8.5h5V30C25.5,31.378,24.378,32.5,23,32.5z"/>
    <path fill="#ba9b48"
          d="M25 22v8c0 1.103-.897 2-2 2s-2-.897-2-2v-8H25M26 21h-6v9c0 1.657 1.343 3 3 3s3-1.343 3-3V21L26 21zM12.5 18A3.5 4 0 1 0 12.5 26 3.5 4 0 1 0 12.5 18z"/>
    <path fill="#e8d47b" d="M28,30.5c-1.378,0-2.5-1.122-2.5-2.5v-8.5h5V28C30.5,29.378,29.378,30.5,28,30.5z"/>
    <path fill="#ba9b48"
          d="M30,20v8c0,1.103-0.897,2-2,2s-2-0.897-2-2v-8H30 M31,19h-6v9c0,1.657,1.343,3,3,3s3-1.343,3-3V19 L31,19z"/>
    <path fill="#f78f8f"
          d="M14,24.5c-0.827,0-1.5-0.673-1.5-1.5V8c0-0.827,0.673-1.5,1.5-1.5h23c0.827,0,1.5,0.673,1.5,1.5v15 c0,0.827-0.673,1.5-1.5,1.5H14z"/>
    <path fill="#c74343"
          d="M37,7c0.551,0,1,0.449,1,1v15c0,0.551-0.449,1-1,1H14c-0.551,0-1-0.449-1-1V8c0-0.551,0.449-1,1-1 H37 M37,6H14c-1.105,0-2,0.895-2,2v15c0,1.105,0.895,2,2,2h23c1.105,0,2-0.895,2-2V8C39,6.895,38.105,6,37,6L37,6z"/>
    <path fill="#fff" d="M15 14H36V16H15z"/>
    <path fill="#ffeea3"
          d="M1.5,33.5V18.262l9.237-6.413c0.292-0.232,0.625-0.349,0.964-0.349H13.5v7.567l-2.222,2.639 c-0.254,0.302-0.31,0.708-0.146,1.06c0.166,0.357,0.521,0.588,0.905,0.588c0.164,0,0.323-0.041,0.474-0.121l8.015-5.253 c0.444-0.318,0.947-0.48,1.471-0.48c0.806,0,1.566,0.39,2.035,1.044c0.803,1.12,0.545,2.685-0.576,3.488L12.05,32.481 c-0.787,0.651-1.806,1.019-2.852,1.019H1.5z"/>
    <path fill="#ba9b48"
          d="M13,12v6.885l-2.105,2.499c-0.38,0.452-0.463,1.062-0.217,1.593 c0.248,0.533,0.781,0.877,1.359,0.877c0.243,0,0.488-0.062,0.708-0.179l0.041-0.022l0.039-0.025l8.009-5.254 C21.177,18.13,21.579,18,21.997,18c0.645,0,1.253,0.312,1.628,0.835c0.643,0.896,0.436,2.148-0.46,2.791l-0.049,0.035 l-0.044,0.041L11.75,32.08C11.034,32.673,10.128,33,9.198,33H2V18.523l9.022-6.263l0.028-0.019l0.027-0.021 C11.253,12.078,11.475,12,11.702,12H13 M14,11h-2.298c-0.454,0-0.895,0.155-1.249,0.438L1,18v16h8.198 c1.165,0,2.293-0.407,3.19-1.15l11.36-10.412c1.347-0.965,1.656-2.839,0.69-4.186C23.852,17.435,22.931,17,21.997,17 c-0.605,0-1.216,0.182-1.745,0.562l-7.975,5.23c-0.081,0.043-0.162,0.062-0.239,0.062c-0.385,0-0.673-0.475-0.378-0.826L14,19.25 V11L14,11z"/>
    <g>
        <path fill="#36404d" d="M12 9H39V13H12z"/>
    </g>
    <g>
        <path fill="#c74343" d="M12 13H13V22H12z"/>
    </g>
    <g>
        <path fill="#f78f8f" d="M13 13L15 13 15 21 13 22.318z"/>
    </g>
    <g>
        <path fill="#ffeea3" d="M3 17.829L1 19.217 1 33 3 33z"/>
    </g>
</svg>