<?xml version="1.0" encoding="utf-8"?><!--
  ~ CoreShop.
  ~
  ~ This source file is subject to the GNU General Public License version 3 (GPLv3)
  ~ For the full copyright and license information, please view the LICENSE.md and gpl-3.0.txt
  ~ files that are distributed with this source code.
  ~
  ~ @copyright  Copyright (c) 2015-2017 Dominik Pfaffenbauer (https://www.pfaffenbauer.at)
  ~ @license    https://www.coreshop.org/license     GNU General Public License version 3 (GPLv3)
  ~
  -->

<!-- Generator: Adobe Illustrator 18.1.1, SVG Export Plug-In . SVG Version: 6.00 Build 0)  -->
<svg xmlns="http://www.w3.org/2000/svg"  version="1.0" id="Layer_1" x="0px" y="0px" viewBox="0 0 48 48" enable-background="new 0 0 48 48" xml:space="preserve"  >
<path fill="#78909C" d="M40,41H8c-2.2,0-4-1.8-4-4l0-20.9c0-1.3,0.6-2.5,1.7-3.3L24,0l18.3,12.8c1.1,0.7,1.7,2,1.7,3.3V37  C44,39.2,42.2,41,40,41z"/>
<rect x="14" y="1" fill="#AED581" width="20" height="31"/>
<g>
	<path fill="#558B2F" d="M13,0v33h22V0H13z M33,31H15V2h18V31z"/>
	<path fill="#558B2F" d="M34,3c0,1.7-0.3,3-2,3c-1.7,0-3-1.3-3-3s1.3-2,3-2C33.7,1,34,1.3,34,3z"/>
	<path fill="#558B2F" d="M16,1c1.7,0,3,0.3,3,2s-1.3,3-3,3s-2-1.3-2-3S14.3,1,16,1z"/>
	<circle fill="#558B2F" cx="24" cy="8" r="2"/>
	<circle fill="#558B2F" cx="24" cy="20" r="6"/>
</g>
<path fill="#CFD8DC" d="M40,41H8c-2.2,0-4-1.8-4-4l0-20l20,13l20-13v20C44,39.2,42.2,41,40,41z"/>
</svg>