<svg id="Ebene_1" data-name="Ebene 1" xmlns="http://www.w3.org/2000/svg" viewBox="0 0 333.77 87">
    <defs>
        <style>.cls-1{fill:#cd1017;}.cls-1,.cls-2{fill-rule:evenodd;}.cls-2{fill:white;}</style>
    </defs>
    <title>coreshopWon rgb</title>
    <path class="cls-1"
          d="M47.94,50.58,37.37,56.69,13.68,43V29.82L37.37,16.15l31.86,18.4V25.1L37.37,6.7,5.5,25.1V47.73l31.87,18.4L56.12,55.3V45.86l-8.18-4.72v9.44ZM26.79,36.42l10.58-6.11L61.05,44V57.18L37.37,70.85,5.5,52.45V61.9L37.37,80.3,69.23,61.9V39.27L37.37,20.87,18.62,31.7v9.44l8.17,4.72V36.42Z"/>
    <path class="cls-2"
          d="M101.94,58.13a14.6,14.6,0,0,0,11.48-5l-3.19-3.24c-2.43,2.27-4.65,3.68-8.12,3.68-5.42,0-9.34-4.53-9.34-10.06v-.08c0-5.54,3.92-10,9.34-10,3.23,0,5.65,1.41,7.91,3.51l3.2-3.67a14.74,14.74,0,0,0-11.07-4.41A14.32,14.32,0,0,0,87.56,43.5v.08a14.23,14.23,0,0,0,14.38,14.55Zm30.43,0A14.49,14.49,0,0,0,147.2,43.5v-.08a14.79,14.79,0,0,0-29.58.08v.08a14.36,14.36,0,0,0,14.75,14.55Zm.08-4.57c-5.61,0-9.61-4.57-9.61-10.06v-.08c0-5.5,3.92-10,9.53-10S142,38,142,43.5v.08c0,5.5-3.92,10-9.54,10Zm21.82,4.08h5V47.78h6.22l6.95,9.86h5.86l-7.63-10.71c4-1.13,6.74-3.91,6.74-8.56v-.08a8.55,8.55,0,0,0-2.34-6.1c-1.82-1.78-4.61-2.83-8.16-2.83H154.27V57.64Zm5-14.26v-9.5h7.23c3.68,0,5.86,1.66,5.86,4.69v.08c0,2.87-2.26,4.73-5.82,4.73Zm25.3,14.26h21.17V53.2h-16.2V45.6h14.18V41.16H189.51V33.8h16V29.36h-21V57.64Zm38.18.4c5.62,0,9.66-3.15,9.66-8V50c0-4.32-2.91-6.62-9.21-8s-7.68-2.82-7.68-5.49v-.08c0-2.55,2.34-4.57,6-4.57a12.41,12.41,0,0,1,8.16,3.07l1.86-2.46A14.77,14.77,0,0,0,221.59,29c-5.37,0-9.29,3.27-9.29,7.71v.08c0,4.65,3,6.75,9.49,8.16,5.94,1.26,7.36,2.75,7.36,5.38v.08c0,2.79-2.51,4.81-6.31,4.81s-6.74-1.34-9.69-4l-2,2.34A16.53,16.53,0,0,0,222.72,58Zm17.22-.4h3.19V44.91h16.32V57.64h3.19V29.36h-3.19V41.92H243.13V29.36h-3.19V57.64Zm44.89.49A14.33,14.33,0,0,0,299.29,43.5v-.08c0-7.8-5.77-14.55-14.38-14.55A14.33,14.33,0,0,0,270.45,43.5v.08c0,7.8,5.77,14.55,14.38,14.55Zm.08-3c-6.46,0-11.15-5.26-11.15-11.68v-.08c0-6.42,4.61-11.6,11.07-11.6S296,37.08,296,43.5v.08c0,6.42-4.6,11.6-11.07,11.6Zm22.19,2.46h3.19v-10h6.87c6,0,11.11-3.15,11.11-9.25v-.08c0-5.58-4.21-9-10.59-9H307.1V57.64Zm3.19-12.89V32.31h7.15c4.56,0,7.59,2.1,7.59,6.14v.08c0,3.72-3.07,6.22-7.75,6.22Z"/>
</svg>
