<!--
  ~ CoreShop.
  ~
  ~ This source file is subject to the GNU General Public License version 3 (GPLv3)
  ~ For the full copyright and license information, please view the LICENSE.md and gpl-3.0.txt
  ~ files that are distributed with this source code.
  ~
  ~ @copyright  Copyright (c) CoreShop GmbH (https://www.coreshop.org)
  ~ @license    https://www.coreshop.org/license     GNU General Public License version 3 (GPLv3)
  ~
  -->

<svg x="0" y="0" version="1.1" xmlns="http://www.w3.org/2000/svg" viewBox="0 0 48 48" style="fill: rgb(184, 5, 5);"><g fill="none" stroke="none" stroke-width="1" stroke-linecap="butt" stroke-linejoin="miter" stroke-miterlimit="10" stroke-dasharray="" stroke-dashoffset="0" font-family="sans-serif" font-weight="normal" font-size="12" text-anchor="start" mix-blend-mode="normal"><g><g><path d="M0,48l0,-48l48,0l0,48z" fill="none"/><g><path d="M25.4,5.6c-0.8,-0.8 -2,-0.8 -2.8,0l-12,12c-0.8,0.8 -0.8,2 0,2.8c0.4,0.4 0.9,0.6 1.4,0.6c0.5,0 1,-0.2 1.4,-0.6l12,-12c0.8,-0.8 0.8,-2 0,-2.8z" fill="#607d8b"/><path d="M37.4,17.6l-12,-12c-0.8,-0.8 -2,-0.8 -2.8,0c-0.8,0.8 -0.8,2 0,2.8l12,12c0.4,0.4 0.9,0.6 1.4,0.6c0.5,0 1,-0.2 1.4,-0.6c0.8,-0.8 0.8,-2 0,-2.8z" fill="#455a64"/><path d="M37.4,41l-26.8,0c-1,0 -1.8,-0.7 -2,-1.6l-3.6,-18.4l38,0l-3.7,18.4c-0.2,0.9 -1,1.6 -1.9,1.6z" fill="#d32f2f"/><path d="M43,23l-38,0c-1.1,0 -2,-0.9 -2,-2l0,-2c0,-1.1 0.9,-2 2,-2l38,0c1.1,0 2,0.9 2,2l0,2c0,1.1 -0.9,2 -2,2z" fill="#f44336"/><path d="M25,25l-2,0c0,0 0,10.8 0,11c0,0.6 0.4,1 1,1c0.6,0 1,-0.4 1,-1c0,-0.2 0,-11 0,-11z" fill="#7d1313"/><path d="M29,25l-2,0c0,0 0,10.8 0,11c0,0.6 0.4,1 1,1c0.6,0 1,-0.4 1,-1c0,-0.2 0,-11 0,-11z" fill="#7d1313"/><path d="M33,25l-2,0c0,0 0,10.8 0,11c0,0.6 0.4,1 1,1c0.6,0 1,-0.4 1,-1c0,-0.2 0,-11 0,-11z" fill="#7d1313"/><path d="M17,25l-2,0c0,0 0,10.8 0,11c0,0.6 0.4,1 1,1c0.6,0 1,-0.4 1,-1c0,-0.2 0,-11 0,-11z" fill="#7d1313"/><path d="M21,25l-2,0c0,0 0,10.8 0,11c0,0.6 0.4,1 1,1c0.6,0 1,-0.4 1,-1c0,-0.2 0,-11 0,-11z" fill="#7d1313"/></g><g><g id="IOS_copy"><path d="M46.12,34.61143c0,5.5 -4.5,10 -10,10c-5.5,0 -10,-4.5 -10,-10c0,-5.5 4.5,-10 10,-10c5.5,0 10,4.5 10,10" fill="#ff3d00"/><g fill="#ffffff"><rect x="34.62" y="27.61143" transform="scale(1,1)" width="3" height="9"/><rect x="34.62" y="38.61143" transform="scale(1,1)" width="3" height="3"/></g></g><path d="M25.28571,34.61143c0,-5.98361 4.85067,-10.83429 10.83429,-10.83429c5.98361,0 10.83429,4.85067 10.83429,10.83429c0,5.98361 -4.85067,10.83429 -10.83429,10.83429c-5.98361,0 -10.83429,-4.85067 -10.83429,-10.83429z" fill="#ff0000" opacity="0"/></g></g></g></g></svg>
