<?xml version="1.0" encoding="utf-8"?><!--
  ~ CoreShop.
  ~
  ~ This source file is subject to the GNU General Public License version 3 (GPLv3)
  ~ For the full copyright and license information, please view the LICENSE.md and gpl-3.0.txt
  ~ files that are distributed with this source code.
  ~
  ~ @copyright  Copyright (c) 2015-2019 Dominik Pfaffenbauer (https://www.pfaffenbauer.at)
  ~ @license    https://www.coreshop.org/license     GNU General Public License version 3 (GPLv3)
  ~
  -->

<!-- Generator: Adobe Illustrator 15.0.0, SVG Export Plug-In . SVG Version: 6.00 Build 0)  --><!DOCTYPE svg PUBLIC "-//W3C//DTD SVG 1.1//EN" "http://www.w3.org/Graphics/SVG/1.1/DTD/svg11.dtd">
<svg xmlns="http://www.w3.org/2000/svg"  version="1.1" id="Слой_1" x="0px" y="0px"   viewBox="0 0 48 48" enable-background="new 0 0 48 48" xml:space="preserve">
<g>
	<path fill="#FF8F00" d="M39.465,17.124c1.836-0.175,2.346-1.604,2.482-2.557c-0.057-1.895-0.661-3.85-4.032-4.604L6,6v9.905   l19.716,2.403L39.465,17.124z"/>
	<path fill="#FF8F00" d="M42,42l-31.951-3.763C6.837,37.597,6,35.432,6,33.686v-9.174v-0.22c0,0.11,0.03,2.711,2.646,3.234   L42,31.241V42z"/>
</g>
<path fill="#FFCA28" d="M8.646,27.526l12.616,1.405l16.343-1.476c3.209-0.315,4.349-2.605,4.349-4.471L42,13.91  c0,0.697-0.184,2.99-2.535,3.214l-29.384,2.531c-0.046,0.005-0.091,0.011-0.136,0.021C6.83,20.376,6,22.36,6,24.057v0.235  C6,24.402,6.03,27.003,8.646,27.526z"/>
<g>
	<polygon fill="#ED8F29" points="35,17.513 33,17.685 33,24 35,24  "/>
	<polygon fill="#ED8F29" points="14.988,19.232 13,19.404 13,23.798 14.988,23.798  "/>
	<polygon fill="#ED8F29" points="30.967,17.856 29,18.028 29,21.935 30.967,21.935  "/>
	<path fill="#ED8F29" d="M10.081,19.655c-0.046,0.005-0.091,0.011-0.136,0.021C9.602,19.753,9.296,19.853,9,19.961V26h1.994v-6.423   L10.081,19.655z"/>
	<polygon fill="#ED8F29" points="18.983,18.89 17,19.061 17,22.962 18.983,22.962  "/>
	<polygon fill="#ED8F29" points="27,18.2 25,18.372 25,23 27,23  "/>
	<polygon fill="#ED8F29" points="38.997,17.168 37,17.341 37.04,21 38.997,21  "/>
	<polygon fill="#ED8F29" points="23,18.545 21,18.717 21,25 23,25  "/>
</g>
<g>
	<polygon fill="#B75F00" points="31,30.018 29.004,29.795 29.004,33.549 31,33.549  "/>
	<polygon fill="#B75F00" points="35,30.452 33.002,30.229 33.002,36 35,36  "/>
	<polygon fill="#B75F00" points="11,27.793 9.002,27.57 9.002,33.549 11,33.549  "/>
	<polygon fill="#B75F00" points="26.997,29.552 25,29.329 25,33 26.997,33  "/>
	<polygon fill="#B75F00" points="23,29.127 21.002,28.905 21.002,34.538 23,34.538  "/>
	<polygon fill="#B75F00" points="15,28.237 13.003,28.016 13.003,31.572 15,31.572  "/>
	<polygon fill="#B75F00" points="37,30.6 37,34 38.997,34 38.997,30.822  "/>
	<polygon fill="#B75F00" points="19,28.683 17.002,28.46 17.002,32.1 19,32.1  "/>
	<polygon fill="#B75F00" points="26.998,8.604 25.001,8.356 25.001,12.393 26.998,12.393  "/>
	<polygon fill="#B75F00" points="22.998,8.108 21,7.86 21,13.91 22.998,13.91  "/>
	<polygon fill="#B75F00" points="30.998,9.1 29.002,8.852 29.002,12.921 30.998,12.921  "/>
	<polygon fill="#B75F00" points="10.998,6.62 9,6.372 9,12.921 10.998,12.921  "/>
	<polygon fill="#B75F00" points="18.998,7.612 17,7.364 17,11.472 18.998,11.472  "/>
	<polygon fill="#B75F00" points="14.998,7.116 13.001,6.868 13.001,10.944 14.998,10.944  "/>
	<path fill="#B75F00" d="M38.957,10.27c-0.316-0.116-0.658-0.221-1.042-0.306L37,9.845v3.612h1.957V10.27z"/>
	<polygon fill="#B75F00" points="34.998,9.597 33,9.348 33,15.382 34.998,15.382  "/>
</g>
</svg>