<?xml version="1.0" encoding="utf-8"?><!--
  ~ CoreShop.
  ~
  ~ This source file is subject to the GNU General Public License version 3 (GPLv3)
  ~ For the full copyright and license information, please view the LICENSE.md and gpl-3.0.txt
  ~ files that are distributed with this source code.
  ~
  ~ @copyright  Copyright (c) 2015-2017 Dominik Pfaffenbauer (https://www.pfaffenbauer.at)
  ~ @license    https://www.coreshop.org/license     GNU General Public License version 3 (GPLv3)
  ~
  -->

<!-- Generator: Adobe Illustrator 15.0.0, SVG Export Plug-In . SVG Version: 6.00 Build 0)  --><!DOCTYPE svg PUBLIC "-//W3C//DTD SVG 1.1//EN" "http://www.w3.org/Graphics/SVG/1.1/DTD/svg11.dtd">
<svg xmlns="http://www.w3.org/2000/svg"  version="1.1" id="Слой_1" x="0px" y="0px"   viewBox="0 0 48 48" enable-background="new 0 0 48 48" xml:space="preserve">
<g>
	<path fill="#FF4081" d="M5,22c2,0,2-10,15-10s12.466,9.29,15.466,10.29V27H5V22z"/>
	<path fill="#FF4081" d="M46,31.25c0,0,0,1.75-2,1.75c-3,0-39,0-39,0c-1.657,0-3-1.344-3-3v-5c0,0,0-3,3-3c4,0,26,0,26,0   c10,0,15,4,15,6V31.25z"/>
</g>
<g>
	<path fill="#455A64" d="M41,30c0,2.761-2.238,5-5,5s-5-2.239-5-5s2.238-5,5-5S41,27.239,41,30"/>
	<path fill="#455A64" d="M17,30c0,2.761-2.239,5-5,5s-5-2.239-5-5s2.239-5,5-5S17,27.239,17,30"/>
</g>
<g>
	<path fill="#B0BEC5" d="M38,30c0,1.105-0.895,2-2,2s-2-0.895-2-2s0.895-2,2-2S38,28.895,38,30"/>
	<path fill="#B0BEC5" d="M14,30c0,1.105-0.895,2-2,2s-2-0.895-2-2s0.895-2,2-2S14,28.895,14,30"/>
</g>
<g>
	<path fill="#FFC107" d="M3.5,25H2v4h1.5C4.329,29,5,28.328,5,27.5v-1C5,25.672,4.329,25,3.5,25z"/>
	<path fill="#FFC107" d="M43,24.658V27.5c0,0.828,0.672,1.5,1.5,1.5H46v-1C46,27.106,44.995,25.815,43,24.658z"/>
</g>
<g>
	<path fill="#660636" d="M32.328,22c-0.293-0.456-0.565-0.945-0.841-1.445c-1.535-2.791-3.442-6.226-10.487-6.525V22H32.328z"/>
	<path fill="#660636" d="M19,22v-7.967c-7.281,0.336-9.313,4.284-10.668,6.942C8.155,21.321,7.975,21.668,7.783,22H19z"/>
</g>
</svg>