<?xml version="1.0" encoding="UTF-8"?>
<svg xmlns="http://www.w3.org/2000/svg" xmlns:xlink="http://www.w3.org/1999/xlink" viewBox="0 0 48 48" version="1.1">
    <g>
        <path style=" stroke:none;fill-rule:nonzero;fill:rgb(100%,100%,100%);fill-opacity:1;" d="M 24 10 C 20.6875 10 18 12.6875 18 16 C 18 19.3125 20.6875 22 24 22 C 28.5 22 36 16 36 16 C 36 16 28.5 10 24 10 Z M 36.6875 10 C 35.335938 10 34.101562 10.640625 33.25 11.625 C 35.320312 12.9375 36.898438 14.15625 37.25 14.4375 L 39.1875 16 L 37.25 17.5625 C 36.976562 17.78125 35.992188 18.570312 34.625 19.5 C 35.242188 19.820312 35.953125 20 36.6875 20 C 40.1875 20 46 15 46 15 C 46 15 40.1875 10 36.6875 10 Z M 6 14 L 6 20 L 0 20 L 0 24 L 6 24 L 6 30 L 10 30 L 10 24 L 16 24 L 16 20 L 10 20 L 10 14 Z M 37 24 C 34.601562 24 32.773438 24.625 31.375 25.625 C 35.976562 27.828125 37.8125 31.601562 37.8125 32 L 46 32 L 46 29.625 C 46 29.421875 43.796875 24 37 24 Z M 24 26 C 14.796875 26 12 32.625 12 32.625 L 12 36 L 36 36 L 36 32.625 C 36 32.625 33.203125 26 24 26 Z M 24 26 "/>
    </g>
</svg>
