<?xml version="1.0" encoding="UTF-8"?>
<svg xmlns="http://www.w3.org/2000/svg" xmlns:xlink="http://www.w3.org/1999/xlink" viewBox="0 0 24 24" version="1.1">
    <g>
        <path style=" stroke:none;fill-rule:nonzero;fill:rgb(100%,100%,100%);fill-opacity:1;" d="M 7 4 C 5.34375 4 4 5.34375 4 7 C 4 8.65625 5.34375 10 7 10 C 8.65625 10 10 8.65625 10 7 C 10 5.34375 8.65625 4 7 4 Z M 17 4 C 15.34375 4 14 5.34375 14 7 C 14 8.65625 15.34375 10 17 10 C 18.65625 10 20 8.65625 20 7 C 20 5.34375 18.65625 4 17 4 Z M 7 12 C 3.46875 12 1 13.320312 1 15.21875 L 1 18 L 9 18 L 9 15.21875 C 9 14.140625 9.378906 13.191406 10.089844 12.398438 C 9.210938 12.140625 8.160156 12 7 12 Z M 17 12 C 14.808594 12 13.03125 12.507812 12 13.347656 C 11.359375 13.847656 11 14.5 11 15.222656 L 11 18 L 14.667969 18 L 20.222656 12.449219 C 19.3125 12.160156 18.21875 12 17 12 Z M 22.253906 16.332031 L 18.460938 20.546875 L 16.707031 18.792969 L 15.292969 20.207031 L 18.539062 23.453125 L 23.746094 17.667969 Z M 22.253906 16.332031 "/>
    </g>
</svg>
