<?xml version="1.0" encoding="utf-8"?><!--
  ~ CoreShop.
  ~
  ~ This source file is subject to the GNU General Public License version 3 (GPLv3)
  ~ For the full copyright and license information, please view the LICENSE.md and gpl-3.0.txt
  ~ files that are distributed with this source code.
  ~
  ~ @copyright  Copyright (c) 2015-2020 Dominik Pfaffenbauer (https://www.pfaffenbauer.at)
  ~ @license    https://www.coreshop.org/license     GNU General Public License version 3 (GPLv3)
  ~
  -->

<!-- Generator: Adobe Illustrator 18.1.1, SVG Export Plug-In . SVG Version: 6.00 Build 0)  -->
<svg xmlns="http://www.w3.org/2000/svg"  version="1.1" id="Layer_1" x="0px" y="0px" viewBox="0 0 48 48" enable-background="new 0 0 48 48" xml:space="preserve"  >
<path fill="#D32F2F" d="M38,42H10c-1.1,0-2-0.9-2-2V20h32v20C40,41.1,39.1,42,38,42z"/>
<path fill="#F44336" d="M42,20H6v-6c0-1.1,0.9-2,2-2h32c1.1,0,2,0.9,2,2V20z"/>
<g>
	<g>
		<rect x="22" y="20" fill="#FF8F00" width="4" height="22"/>
	</g>
	<polygon fill="#FF8F00" points="32,6 28,6 22,12 26,12  "/>
</g>
<polygon fill="#FFC107" points="20,6 16,6 22,12 22,20 26,20 26,12 "/>
</svg>
