<?xml version="1.0" encoding="UTF-8"?>
<svg xmlns="http://www.w3.org/2000/svg" xmlns:xlink="http://www.w3.org/1999/xlink" viewBox="0 0 48 48" version="1.1">
<g id="surface1">
<path style=" fill:#BF360C;" d="M 41.199219 5 L 33.898438 5 L 32 43 L 43 43 Z "/>
<path style=" fill:#E64A19;" d="M 33 23 L 29 23 L 29 17 L 17 23 L 17 17 L 5 23 L 5 43 L 33 43 Z "/>
<path style=" fill:#FFC107;" d="M 9 27 L 13 27 L 13 31 L 9 31 Z "/>
<path style=" fill:#FFC107;" d="M 17 27 L 21 27 L 21 31 L 17 31 Z "/>
<path style=" fill:#FFC107;" d="M 25 27 L 29 27 L 29 31 L 25 31 Z "/>
<path style=" fill:#FFC107;" d="M 9 35 L 13 35 L 13 39 L 9 39 Z "/>
<path style=" fill:#FFC107;" d="M 17 35 L 21 35 L 21 39 L 17 39 Z "/>
<path style=" fill:#FFC107;" d="M 25 35 L 29 35 L 29 39 L 25 39 Z "/>
</g>
</svg>
