<?xml version="1.0"?>
<svg xmlns="http://www.w3.org/2000/svg" xmlns:xlink="http://www.w3.org/1999/xlink" version="1.1" viewBox="0 0 252 252" width="48px" height="48px"><g fill="none" fill-rule="nonzero" stroke="none" stroke-width="1" stroke-linecap="butt" stroke-linejoin="miter" stroke-miterlimit="10" stroke-dasharray="" stroke-dashoffset="0" font-family="none" font-weight="none" font-size="none" text-anchor="none" style="mix-blend-mode: normal"><path d="M0,252v-252h252v252z" fill="none"/><g><g id="surface1"><path d="M215.25,199.5c0,26.25 -21,26.25 -21,26.25h-141.75v-199.5h162.75c0,0 0,147 0,173.25z" fill="#c5cae9"/><path d="M73.5,63h15.75v15.75h-15.75z" fill="#7986cb"/><path d="M105,63h89.25v15.75h-89.25z" fill="#7986cb"/><path d="M73.5,94.5h15.75v15.75h-15.75z" fill="#7986cb"/><path d="M105,94.5h89.25v15.75h-89.25z" fill="#7986cb"/><path d="M73.5,126h15.75v15.75h-15.75z" fill="#7986cb"/><path d="M105,126h89.25v15.75h-89.25z" fill="#7986cb"/><path d="M173.25,199.5c0,-3.75293 0,-19.91309 0,-26.25h-136.5c0,6.33691 0,22.49707 0,26.25c0,14.49902 6.50098,26.25 21,26.25h136.5c-14.49902,0 -21,-11.75098 -21,-26.25z" fill="#3f51b5"/></g></g><g><g><rect x="31.43333" y="45.53333" transform="scale(5.19231,5.19231)" width="16" height="3" fill="#b39ddb"/><path d="M215.13462,212.53846v-12.46154h-20.76923v11.94231l-30.63462,8.82692l-0.51923,5.19231h83.07692v-5.19231z" fill="#37474f"/><path d="M251.48077,241.61538h-93.98077l0.51923,-15.05769c0,-3.11538 2.59615,-5.71154 5.71154,-5.71154h82.55769c3.11538,0 5.71154,2.59615 5.71154,5.71154z" fill="#546e7a"/><path d="M194.36538,205.26923c0,0 -10.38462,-27.51923 -10.38462,-40.5c0,-12.98077 6.75,-16.61538 18.17308,-16.61538h5.19231c11.42308,0 18.17308,4.15385 18.17308,16.61538c0,12.46154 -10.38462,40.5 -10.38462,40.5z" fill="#f4511e"/></g></g></g></svg>
