<?xml version="1.0" encoding="utf-8"?><!--
  ~ CoreShop.
  ~
  ~ This source file is subject to the GNU General Public License version 3 (GPLv3)
  ~ For the full copyright and license information, please view the LICENSE.md and gpl-3.0.txt
  ~ files that are distributed with this source code.
  ~
  ~ @copyright  Copyright (c) 2015-2021 Dominik Pfaffenbauer (https://www.pfaffenbauer.at)
  ~ @license    https://www.coreshop.org/license     GNU General Public License version 3 (GPLv3)
  ~
  -->

<!-- Generator: Adobe Illustrator 15.0.0, SVG Export Plug-In . SVG Version: 6.00 Build 0)  --><!DOCTYPE svg PUBLIC "-//W3C//DTD SVG 1.1//EN" "http://www.w3.org/Graphics/SVG/1.1/DTD/svg11.dtd">
<svg xmlns="http://www.w3.org/2000/svg"  version="1.1" id="Слой_1" x="0px" y="0px"   viewBox="0 0 48 48" enable-background="new 0 0 48 48" xml:space="preserve">
<g>
	<path fill="#37474F" d="M36,36c1.657,0,3,1.343,3,3s-1.343,3-3,3s-3-1.343-3-3S34.343,36,36,36"/>
	<path fill="#37474F" d="M21,36c1.657,0,3,1.343,3,3s-1.343,3-3,3s-3-1.343-3-3S19.343,36,21,36"/>
</g>
<g>
	<path fill="#607D8B" d="M36,38c0.552,0,1,0.448,1,1s-0.448,1-1,1s-1-0.448-1-1S35.448,38,36,38"/>
	<path fill="#607D8B" d="M21,38c0.552,0,1,0.448,1,1s-0.448,1-1,1s-1-0.448-1-1S20.448,38,21,38"/>
</g>
<g>
	<path fill="#009688" d="M20.008,32c-1.102,0-1.999-0.896-2-1.999L18,19.998l-4,0.004l0.008,10.003c0.003,3.306,2.694,5.995,6,5.995   H39v-4H20.008z"/>
	<path fill="#009688" d="M36.968,24H20.173H20v-0.027c-0.355-0.063-0.658-0.305-0.775-0.656l-4.86-14.582   C13.818,7.1,12.293,6,10.569,6H7.011v4h3.559l5.544,16.632c0.068,0.203,0.166,0.391,0.289,0.556C16.772,27.689,17.364,28,18.011,28   h20.896c0.787,0,1.501-0.462,1.823-1.179L42,24H36.968z"/>
</g>
<path fill="#00695C" d="M9,8c0,1.105-0.895,2-2,2S5,9.105,5,8s0.895-2,2-2S9,6.895,9,8"/>
<path fill="#FF9800" d="M40,24H20c-1.105,0-2-0.895-2-2V8c0-1.105,0.895-2,2-2h20c1.105,0,2,0.895,2,2v14C42,23.105,41.105,24,40,24  "/>
<path fill="#8A5100" d="M34,10c0,0.553-0.447,1-1,1h-6c-0.553,0-1-0.447-1-1l0,0c0-0.553,0.447-1,1-1h6C33.553,9,34,9.447,34,10  L34,10z"/>
</svg>
