<?xml version="1.0"?>
<svg xmlns="http://www.w3.org/2000/svg" xmlns:xlink="http://www.w3.org/1999/xlink" version="1.1" viewBox="0 0 252 252"><g fill="none" fill-rule="nonzero" stroke="none" stroke-width="1" stroke-linecap="butt" stroke-linejoin="miter" stroke-miterlimit="10" stroke-dasharray="" stroke-dashoffset="0" font-family="none" font-weight="none" font-size="none" text-anchor="none" style="mix-blend-mode: normal"><path d="M0,252v-252h252v252z" fill="none"/><g id="Layer_1"><path d="M220.5,31.5c0,-3.15 -2.1,-5.25 -5.25,-5.25h-178.5c-3.15,0 -5.25,2.1 -5.25,5.25v194.25h189z" fill="#cccccc"/><rect x="6" y="41" transform="scale(5.25,5.25)" width="36" height="2" fill="#b0bec5"/><rect x="40" y="20" transform="scale(5.25,5.25)" width="2" height="21" fill="#b0bec5"/><rect x="6" y="20" transform="scale(5.25,5.25)" width="2" height="21" fill="#b0bec5"/><g fill="#90a4ae"><circle cx="13.5" cy="8.5" transform="scale(5.25,5.25)" r="1.5"/><circle cx="17.5" cy="8.5" transform="scale(5.25,5.25)" r="1.5"/><circle cx="9.5" cy="8.5" transform="scale(5.25,5.25)" r="1.5"/></g><rect x="25" y="25" transform="scale(5.25,5.25)" width="13" height="11" fill="#e3f2fd"/><rect x="26" y="26" transform="scale(5.25,5.25)" width="11" height="9" fill="#e74c3c"/><g fill="#ffffff"><circle cx="24" cy="20" transform="scale(5.25,5.25)" r="3"/><circle cx="12" cy="20" transform="scale(5.25,5.25)" r="3"/><circle cx="36" cy="20" transform="scale(5.25,5.25)" r="3"/></g><g fill="#ffffff"><rect x="21" y="12" transform="scale(5.25,5.25)" width="6" height="8"/><path d="M47.25,105h31.5l5.25,-42h-26.25z"/><path d="M204.75,105h-31.5l-5.25,-42h26.25z"/></g><g fill="#e74c3c"><circle cx="18" cy="20" transform="scale(5.25,5.25)" r="3"/><path d="M31.5,89.25c8.925,0 15.75,6.825 15.75,15.75c0,8.925 -6.825,15.75 -15.75,15.75c-8.925,0 -15.75,-6.825 -15.75,-15.75z"/><circle cx="30" cy="20" transform="scale(5.25,5.25)" r="3"/><path d="M220.5,89.25c-8.925,0 -15.75,6.825 -15.75,15.75c0,8.925 6.825,15.75 15.75,15.75c8.925,0 15.75,-6.825 15.75,-15.75z"/></g><g fill="#c0392b"><path d="M78.75,105h31.5v-42h-26.25z"/><path d="M15.75,105h31.5l10.5,-42h-26.25z"/><path d="M173.25,105h-31.5v-42h26.25z"/><path d="M236.25,105h-31.5l-10.5,-42h26.25z"/></g><rect x="10" y="25" transform="scale(5.25,5.25)" width="11" height="16" fill="#455a64"/><path d="M63,178.5v10.5c0,1.575 1.05,2.625 2.625,2.625c1.575,0 2.625,-1.05 2.625,-2.625v-10.5c0,-1.575 -1.05,-2.625 -2.625,-2.625c-1.575,0 -2.625,1.05 -2.625,2.625z" fill="#90a4ae"/></g></g></svg>
