<?xml version="1.0" encoding="utf-8"?>
<!-- Generator: Adobe Illustrator 22.1.0, SVG Export Plug-In . SVG Version: 6.00 Build 0)  -->
<svg version="1.1" id="Layer_1" xmlns="http://www.w3.org/2000/svg" xmlns:xlink="http://www.w3.org/1999/xlink" x="0px" y="0px"
	 viewBox="0 0 48 48" style="enable-background:new 0 0 48 48;" xml:space="preserve">
<style type="text/css">
	.st0{fill:#CFD8DC;}
	.st1{fill:#B0BEC5;}
	.st2{fill:#455A64;}
	.st3{fill:#E3F2FD;}
	.st4{fill:#1E88E5;}
	.st5{fill:#90A4AE;}
	.st6{fill:#558B2F;}
	.st7{fill:#7CB342;}
	.st8{fill:#FFA000;}
	.st9{fill:#FFC107;}
	.st10{fill:#CFD8DC;stroke:#000000;stroke-width:0.5;stroke-miterlimit:10;}
	.st11{fill:#78909C;}
</style>
<rect x="5" y="19" class="st0" width="38" height="19"/>
<g>
	<rect x="5" y="38" class="st1" width="38" height="4"/>
</g>
<rect x="27" y="24" class="st2" width="12" height="18"/>
<rect x="9" y="24" class="st3" width="14" height="11"/>
<rect x="10" y="25" class="st4" width="12" height="9"/>
<path class="st5" d="M36.5,33.5c-0.3,0-0.5,0.2-0.5,0.5v2c0,0.3,0.2,0.5,0.5,0.5S37,36.3,37,36v-2C37,33.7,36.8,33.5,36.5,33.5z"/>
<g>
	<circle class="st6" cx="24" cy="19" r="3"/>
	<circle class="st6" cx="36" cy="19" r="3"/>
	<circle class="st6" cx="12" cy="19" r="3"/>
</g>
<g>
	<g>
		<path class="st7" d="M40,6H8C6.9,6,6,6.9,6,8v3h36V8C42,6.9,41.1,6,40,6z"/>
	</g>
	<rect x="21" y="11" class="st7" width="6" height="8"/>
	<polygon class="st7" points="37,11 32,11 33,19 39,19 	"/>
	<polygon class="st7" points="11,11 16,11 15,19 9,19 	"/>
</g>
<g>
	<circle class="st8" cx="30" cy="19" r="3"/>
	<path class="st8" d="M45,19c0,1.7-1.3,3-3,3s-3-1.3-3-3s1.3-3,3-3L45,19z"/>
	<circle class="st8" cx="18" cy="19" r="3"/>
	<path class="st8" d="M3,19c0,1.7,1.3,3,3,3s3-1.3,3-3s-1.3-3-3-3L3,19z"/>
</g>
<g>
	<polygon class="st9" points="32,11 27,11 27,19 33,19 	"/>
	<polygon class="st9" points="42,11 37,11 39,19 45,19 	"/>
	<polygon class="st9" points="16,11 21,11 21,19 15,19 	"/>
	<polygon class="st9" points="6,11 11,11 9,19 3,19 	"/>
</g>
<path class="st10" d="M43.1,32.6H28.8c-1,0-1.8,0.8-1.8,1.8v9c0,1,0.8,1.8,1.8,1.8h14.3c1,0,1.8-0.8,1.8-1.8v-9
	C44.9,33.4,44.1,32.6,43.1,32.6z"/>
<path class="st11" d="M44.9,34.4c0-0.2,0-0.4-0.1-0.6L36,40.2l-8.8-6.4C27,34,27,34.2,27,34.4v0.4l9,6.5l9-6.5V34.4z"/>
</svg>
