<?xml version="1.0" encoding="utf-8"?><!--
  ~ CoreShop.
  ~
  ~ This source file is subject to the GNU General Public License version 3 (GPLv3)
  ~ For the full copyright and license information, please view the LICENSE.md and gpl-3.0.txt
  ~ files that are distributed with this source code.
  ~
  ~ @copyright  Copyright (c) 2015-2017 Dominik Pfaffenbauer (https://www.pfaffenbauer.at)
  ~ @license    https://www.coreshop.org/license     GNU General Public License version 3 (GPLv3)
  ~
  -->

<!-- Generator: Adobe Illustrator 19.1.1, SVG Export Plug-In . SVG Version: 6.00 Build 0)  --><svg xmlns="http://www.w3.org/2000/svg" xmlns:xlink="http://www.w3.org/1999/xlink" version="1.1" id="Layer_1" x="0px" y="0px" viewBox="0 0 48 48" enable-background="new 0 0 48 48" xml:space="preserve"  >
<path fill="#CFD8DC" d="M42,26H6v-4h36V26z M42,8H6v4h36V8z M42,36H6v4h36V36z"/>
<path fill="#FF6D00" d="M18,12H6V8h12V12z M14,36H6v4h8V36z M31,22H6v4h25V22z"/>
<path fill="#BF360C" d="M20,14h-3c-0.5,0-1-0.4-1-1V7c0-0.6,0.5-1,1-1h3c0.5,0,1,0.4,1,1v6C21,13.6,20.5,14,20,14z M17,41v-6  c0-0.5-0.5-1-1-1h-3c-0.6,0-1,0.5-1,1v6c0,0.5,0.4,1,1,1h3C16.5,42,17,41.5,17,41z M34,27v-6c0-0.5-0.5-1-1-1h-3c-0.5,0-1,0.5-1,1v6  c0,0.5,0.5,1,1,1h3C33.5,28,34,27.5,34,27z"/>
</svg>