<?xml version="1.0" encoding="utf-8"?><!--
  ~ CoreShop.
  ~
  ~ This source file is subject to the GNU General Public License version 3 (GPLv3)
  ~ For the full copyright and license information, please view the LICENSE.md and gpl-3.0.txt
  ~ files that are distributed with this source code.
  ~
  ~ @copyright  Copyright (c) 2015-2017 Dominik Pfaffenbauer (https://www.pfaffenbauer.at)
  ~ @license    https://www.coreshop.org/license     GNU General Public License version 3 (GPLv3)
  ~
  -->

<!-- Generator: Adobe Illustrator 15.0.0, SVG Export Plug-In . SVG Version: 6.00 Build 0)  --><!DOCTYPE svg PUBLIC "-//W3C//DTD SVG 1.1//EN" "http://www.w3.org/Graphics/SVG/1.1/DTD/svg11.dtd"><svg xmlns="http://www.w3.org/2000/svg" xmlns:xlink="http://www.w3.org/1999/xlink" version="1.1" id="Слой_1" x="0px" y="0px"   viewBox="0 0 48 48" enable-background="new 0 0 48 48" xml:space="preserve">
<g>
	<path fill="#FFA726" d="M4,18c0,2.152,0.008,2.498-1.23,3.216L1,22v13l4.583-2.167c0.53-0.18,1.345-0.871,2.667-0.872L12,33l-2-15   H4z"/>
	<polyline fill="none" stroke="#FFA726" stroke-width="4" stroke-linecap="round" points="21,22 18,19 13,19 10,25 13,31 18.333,31    21,27  "/>
	<line fill="none" stroke="#FFA726" stroke-width="4" stroke-linecap="round" x1="6" y1="10" x2="6" y2="20"/>
	<polyline fill="none" stroke="#FFA726" stroke-width="4" stroke-linecap="round" points="14,8 11,12 9,20  "/>
	<polyline fill="none" stroke="#FFA726" stroke-width="4" stroke-linecap="round" points="19,11 15,14 12,19  "/>
	<path fill="#FFA726" d="M44,30c0-2.152-0.008-2.498,1.23-3.216L47,26V13l-4.584,2.167c-0.529,0.18-1.345,0.871-2.666,0.872L36,15   l2,15H44z"/>
	<polyline fill="none" stroke="#FFA726" stroke-width="4" stroke-linecap="round" points="27,26 30,29 35,29 38,23 35,17 29.666,17    27,21  "/>
	<line fill="none" stroke="#FFA726" stroke-width="4" stroke-linecap="round" x1="42" y1="38" x2="42" y2="28"/>
	<polyline fill="none" stroke="#FFA726" stroke-width="4" stroke-linecap="round" points="34,40 37,36 39,28  "/>
	<polyline fill="none" stroke="#FFA726" stroke-width="4" stroke-linecap="round" points="29,37 33,34 36,29  "/>
</g>
</svg>