<?xml version="1.0" encoding="utf-8"?><!--
  ~ CoreShop.
  ~
  ~ This source file is subject to the GNU General Public License version 3 (GPLv3)
  ~ For the full copyright and license information, please view the LICENSE.md and gpl-3.0.txt
  ~ files that are distributed with this source code.
  ~
  ~ @copyright  Copyright (c) 2015-2017 Dominik Pfaffenbauer (https://www.pfaffenbauer.at)
  ~ @license    https://www.coreshop.org/license     GNU General Public License version 3 (GPLv3)
  ~
  -->

<!-- Generator: Adobe Illustrator 15.0.0, SVG Export Plug-In . SVG Version: 6.00 Build 0)  --><!DOCTYPE svg PUBLIC "-//W3C//DTD SVG 1.1//EN" "http://www.w3.org/Graphics/SVG/1.1/DTD/svg11.dtd"><svg xmlns="http://www.w3.org/2000/svg" xmlns:xlink="http://www.w3.org/1999/xlink" version="1.1" id="Слой_1" x="0px" y="0px"   viewBox="0 0 48 48" enable-background="new 0 0 48 48" xml:space="preserve">
<path fill="#DD2C00" d="M26.053,13L11.171,27.857c-1.562,1.559-1.562,4.086,0,5.646L21.514,43.83c1.563,1.56,4.096,1.56,5.657,0  L42,28.974V16.994C42,14.788,40.262,13,38.053,13H26.053z M36,21c-1.104,0-2-0.896-2-2c0-1.106,0.896-2,2-2s2,0.894,2,2  C38,20.104,37.104,21,36,21"/>
<path fill="#FF5722" d="M22.026,4L7.169,18.856c-1.559,1.56-1.559,4.087,0,5.647L17.495,34.83c1.56,1.56,4.089,1.56,5.647,0  L38,19.975V7.993C38,5.787,36.212,4,34.006,4H22.026z M32.026,11.957c-1.104,0-2-0.893-2-1.992c0-1.102,0.896-1.991,2-1.991  c1.104,0,2,0.89,2,1.991c0,1.1-0.912,2.009-2.017,2.009"/>
</svg>