<?xml version="1.0" encoding="utf-8"?><!--
  ~ CoreShop.
  ~
  ~ This source file is subject to the GNU General Public License version 3 (GPLv3)
  ~ For the full copyright and license information, please view the LICENSE.md and gpl-3.0.txt
  ~ files that are distributed with this source code.
  ~
  ~ @copyright  Copyright (c) 2015-2017 Dominik Pfaffenbauer (https://www.pfaffenbauer.at)
  ~ @license    https://www.coreshop.org/license     GNU General Public License version 3 (GPLv3)
  ~
  -->

<!-- Generator: Adobe Illustrator 15.0.0, SVG Export Plug-In . SVG Version: 6.00 Build 0)  --><!DOCTYPE svg PUBLIC "-//W3C//DTD SVG 1.1//EN" "http://www.w3.org/Graphics/SVG/1.1/DTD/svg11.dtd">
<svg xmlns="http://www.w3.org/2000/svg"  version="1.1" id="Слой_1" x="0px" y="0px"   viewBox="0 0 48 48" enable-background="new 0 0 48 48" xml:space="preserve">
<path fill="#78909C" d="M6,29v10c0,2.209,1.791,4,4,4h28c2.209,0,4-1.791,4-4V29H6z"/>
<path fill="#455A64" d="M42,29c0,2.209-1.791,4-4,4H10c-2.209,0-4-1.791-4-4l3-18c0.219-2.094,1.791-4,4-4h22  c2.209,0,3.688,1.75,4,4L42,29z"/>
<circle fill="#64DD17" cx="35" cy="38" r="2"/>
<g>
	<polygon fill="#00E5FF" points="24.001,27.242 32,19.242 16,19.242  "/>
	<rect x="21" y="4" fill="#00E5FF" width="5.998" height="15.999"/>
</g>
</svg>