<?xml version="1.0" encoding="iso-8859-1"?><!--
  ~ CoreShop.
  ~
  ~ This source file is subject to the GNU General Public License version 3 (GPLv3)
  ~ For the full copyright and license information, please view the LICENSE.md and gpl-3.0.txt
  ~ files that are distributed with this source code.
  ~
  ~ @copyright  Copyright (c) 2015-2017 Dominik Pfaffenbauer (https://www.pfaffenbauer.at)
  ~ @license    https://www.coreshop.org/license     GNU General Public License version 3 (GPLv3)
  ~
  -->

<!-- Generator: Adobe Illustrator 19.1.1, SVG Export Plug-In . SVG Version: 6.00 Build 0)  --><svg xmlns="http://www.w3.org/2000/svg" xmlns:xlink="http://www.w3.org/1999/xlink" version="1.1" id="Layer_1" x="0px" y="0px" viewBox="0 0 48 48" style="enable-background:new 0 0 48 48;" xml:space="preserve">
<path style="fill:#4CAF50;" d="M29,33L29,33H19c0,0-11,1.986-11,13h32C40,35.025,29,33,29,33"/>
<polygon style="fill:#FF9800;" points="24,39 19,33 19,27 29,27 29,33 "/>
<path style="fill:#FFA726;" d="M35,21c0,1.105-0.896,2-2,2c-1.105,0-2-0.895-2-2s0.895-2,2-2C34.104,19,35,19.895,35,21 M17,21  c0-1.105-0.896-2-2-2c-1.106,0-2,0.895-2,2s0.894,2,2,2C16.104,23,17,22.105,17,21"/>
<path style="fill:#FFB74D;" d="M33,15c0-7.635-18-4.971-18,0v7c0,4.971,4.028,9,9,9c4.971,0,9-4.029,9-9V15z"/>
<path style="fill:#FF5722;" d="M24,6c-6.075,0-10,4.926-10,11v2.286L16,21v-5l12-4l4,4v5l2-1.742V17c0-4.025-1.038-8.016-6-9l-1-2  H24z"/>
<path style="fill:#784719;" d="M27,21c0-0.551,0.448-1,1-1s1,0.449,1,1s-0.448,1-1,1S27,21.551,27,21 M19,21c0,0.551,0.448,1,1,1  s1-0.449,1-1s-0.448-1-1-1S19,20.449,19,21"/>
<path style="fill:#2E7D32;" d="M29,33l-5,6l-5-6c0,0-0.88,0.161-2.141,0.637l0.603,0.645l5,6L23,40.925V46h2v-5.075l0.536-0.643l5-6  l0.539-0.664C29.85,33.156,29,33,29,33z"/>
</svg>