<?xml version="1.0" encoding="UTF-8"?>
<svg xmlns="http://www.w3.org/2000/svg" xmlns:xlink="http://www.w3.org/1999/xlink" viewBox="0 0 48 48" version="1.1">
<g id="surface1">
<path style=" fill:#4E342E;" d="M 9.941406 18.25 L 21.941406 18.25 L 21.941406 31.75 L 9.941406 31.75 Z "/>
<path style=" fill:#4FC3F7;" d="M 19.75 31 L 16 31.769531 L 12.25 31 C 12.25 31 4 32.527344 4 41 L 28 41 C 28 32.558594 19.75 31 19.75 31 "/>
<path style=" fill:#2196F3;" d="M 40 20 L 32 20 L 28 24 L 28 10 C 28 7.789063 29.789063 6 32 6 L 40 6 C 42.210938 6 44 7.789063 44 10 L 44 16 C 44 18.207031 42.210938 20 40 20 "/>
<path style=" fill:#EF8D3C;" d="M 15.941406 34.75 C 14.5 34.75 12.441406 31 12.441406 31 L 12.441406 26 L 19.441406 26 L 19.441406 31 C 19.441406 31 17.378906 34.75 15.941406 34.75 "/>
<path style=" fill:#FFAA45;" d="M 22.941406 23 C 22.941406 26.726563 19.667969 30 15.941406 30 C 12.210938 30 8.941406 26.726563 8.941406 23 L 8.941406 17 C 8.941406 13.273438 22.941406 11.273438 22.941406 17 Z M 15.941406 36 C 18.839844 36 19.441406 31 19.441406 31 C 19.441406 31 17.574219 34 15.941406 34 C 14.304688 34 12.441406 31 12.441406 31 C 12.441406 31 13.039063 36 15.941406 36 "/>
<path style=" fill:#01579B;" d="M 15.941406 38 C 19.503906 38 21.015625 34.046875 21.386719 31.511719 C 20.429688 31.136719 19.75 31 19.75 31 L 19.429688 31.066406 C 19.351563 31.640625 18.648438 36 15.941406 36 C 13.167969 36 12.5 31.449219 12.445313 31.039063 L 12.25 31 C 12.25 31 11.519531 31.140625 10.5 31.550781 C 10.882813 34.085938 12.394531 38 15.941406 38 Z "/>
<path style=" fill:#784719;" d="M 17.941406 22 C 17.941406 21.449219 18.386719 21 18.941406 21 C 19.492188 21 19.941406 21.449219 19.941406 22 C 19.941406 22.550781 19.492188 23 18.941406 23 C 18.386719 23 17.941406 22.550781 17.941406 22 M 11.941406 22 C 11.941406 22.550781 12.386719 23 12.941406 23 C 13.492188 23 13.941406 22.550781 13.941406 22 C 13.941406 21.449219 13.492188 21 12.941406 21 C 12.386719 21 11.941406 21.449219 11.941406 22 "/>
<path style=" fill:#795548;" d="M 15.941406 11 C 11.382813 11 4.941406 13.089844 4.941406 28 L 9.941406 31.75 L 9.941406 21 L 18.941406 16 L 21.941406 20 L 21.941406 32 L 26.941406 27 C 26.941406 23.980469 26.683594 12.5 18.941406 12.5 L 17.941406 11 Z "/>
</g>
</svg>
