<?xml version="1.0" encoding="utf-8"?><!--
  ~ CoreShop.
  ~
  ~ This source file is subject to the GNU General Public License version 3 (GPLv3)
  ~ For the full copyright and license information, please view the LICENSE.md and gpl-3.0.txt
  ~ files that are distributed with this source code.
  ~
  ~ @copyright  Copyright (c) CoreShop GmbH (https://www.coreshop.org)
  ~ @license    https://www.coreshop.org/license     GNU General Public License version 3 (GPLv3)
  ~
  -->

<!-- Generator: Adobe Illustrator 15.0.0, SVG Export Plug-In . SVG Version: 6.00 Build 0)  --><!DOCTYPE svg PUBLIC "-//W3C//DTD SVG 1.1//EN" "http://www.w3.org/Graphics/SVG/1.1/DTD/svg11.dtd">
<svg xmlns="http://www.w3.org/2000/svg"  version="1.1" id="Слой_1" x="0px" y="0px"   viewBox="0 0 48 48" enable-background="new 0 0 48 48" xml:space="preserve">
<path fill="#C5CAE9" d="M41,38c0,5-4,5-4,5H10V5h31C41,5,41,33,41,38z"/>
<g>
	<rect x="14" y="12" fill="#7986CB" width="3" height="3"/>
	<rect x="20" y="12" fill="#7986CB" width="17" height="3"/>
	<rect x="14" y="18" fill="#7986CB" width="3" height="3"/>
	<rect x="20" y="18" fill="#7986CB" width="17" height="3"/>
	<rect x="14" y="24" fill="#7986CB" width="3" height="3"/>
	<rect x="20" y="24" fill="#7986CB" width="17" height="3"/>
</g>
<path fill="#3F51B5" d="M33,38c0-0.713,0-3.793,0-5H17h-6H7c0,1.207,0,4.287,0,5c0,2.762,1.238,5,4,5h26C34.238,43,33,40.762,33,38z  "/>
</svg>
