<?xml version="1.0" encoding="utf-8"?><!--
  ~ CoreShop.
  ~
  ~ This source file is subject to the GNU General Public License version 3 (GPLv3)
  ~ For the full copyright and license information, please view the LICENSE.md and gpl-3.0.txt
  ~ files that are distributed with this source code.
  ~
  ~ @copyright  Copyright (c) CoreShop GmbH (https://www.coreshop.org)
  ~ @license    https://www.coreshop.org/license     GPLv3 and CCL
  ~
  -->

<!-- Generator: Adobe Illustrator 18.1.1, SVG Export Plug-In . SVG Version: 6.00 Build 0)  -->
<svg xmlns="http://www.w3.org/2000/svg"  version="1.1" x="0px" y="0px" viewBox="0 0 48 48" enable-background="new 0 0 48 48" xml:space="preserve" style="fill: rgb(241, 196, 15);">
<path fill="#FFA726" d="M44,20v-7c0-2.2-1.8-4-4-4h-5.5c0,0.8-0.7,1.5-1.5,1.5S31.5,9.8,31.5,9H8c-2.2,0-4,1.8-4,4v7  c2.2,0,4,1.8,4,4c0,2.2-1.8,4-4,4v7c0,2.2,1.8,4,4,4h23.5c0-0.8,0.7-1.5,1.5-1.5s1.5,0.7,1.5,1.5H40c2.2,0,4-1.8,4-4v-7  c-2.2,0-4-1.8-4-4C40,21.8,41.8,20,44,20z M33,35.5c-0.8,0-1.5-0.7-1.5-1.5s0.7-1.5,1.5-1.5s1.5,0.7,1.5,1.5S33.8,35.5,33,35.5z   M33,30.5c-0.8,0-1.5-0.7-1.5-1.5s0.7-1.5,1.5-1.5s1.5,0.7,1.5,1.5S33.8,30.5,33,30.5z M33,25.5c-0.8,0-1.5-0.7-1.5-1.5  s0.7-1.5,1.5-1.5s1.5,0.7,1.5,1.5S33.8,25.5,33,25.5z M33,20.5c-0.8,0-1.5-0.7-1.5-1.5s0.7-1.5,1.5-1.5s1.5,0.7,1.5,1.5  S33.8,20.5,33,20.5z M33,15.5c-0.8,0-1.5-0.7-1.5-1.5s0.7-1.5,1.5-1.5s1.5,0.7,1.5,1.5S33.8,15.5,33,15.5z"/>
</svg>
