<?xml version="1.0" encoding="utf-8"?><!--
  ~ CoreShop.
  ~
  ~ This source file is subject to the GNU General Public License version 3 (GPLv3)
  ~ For the full copyright and license information, please view the LICENSE.md and gpl-3.0.txt
  ~ files that are distributed with this source code.
  ~
  ~ @copyright  Copyright (c) 2015-2017 Dominik Pfaffenbauer (https://www.pfaffenbauer.at)
  ~ @license    https://www.coreshop.org/license     GNU General Public License version 3 (GPLv3)
  ~
  -->

<!-- Generator: Adobe Illustrator 19.1.1, SVG Export Plug-In . SVG Version: 6.00 Build 0)  --><svg xmlns="http://www.w3.org/2000/svg" xmlns:xlink="http://www.w3.org/1999/xlink" version="1.1" x="0px" y="0px" viewBox="0 0 48 48" enable-background="new 0 0 48 48" xml:space="preserve">
<g>
	<rect x="12" y="9" fill="#CFD8DC" width="2" height="30"/>
	<path fill="#CFD8DC" d="M14,37h-2v-7.4c0-2.5,2-4.6,4.6-4.6h14.9c1.4,0,2.6-1.1,2.6-2.6V16h2v6.4c0,2.5-2,4.6-4.6,4.6H16.6   c-1.4,0-2.6,1.1-2.6,2.6V37z"/>
</g>
<path fill="#00BCD4" d="M9,8c0-2.2,1.8-4,4-4c2.2,0,4,1.8,4,4s-1.8,4-4,4C10.8,12,9,10.2,9,8z M35,18c2.2,0,4-1.8,4-4s-1.8-4-4-4  c-2.2,0-4,1.8-4,4S32.8,18,35,18z"/>
<circle fill="#0097A7" cx="13" cy="40" r="4"/>
</svg>