<svg xmlns="http://www.w3.org/2000/svg" xmlns:xlink="http://www.w3.org/1999/xlink" viewBox="0,0,256,256"><g fill="none" fill-rule="nonzero" stroke="none" stroke-width="1" stroke-linecap="butt" stroke-linejoin="miter" stroke-miterlimit="10" stroke-dasharray="" stroke-dashoffset="0" font-family="none" font-weight="none" font-size="none" text-anchor="none" style="mix-blend-mode: normal"><g transform="scale(3.2,3.2)"><path d="M40,77.244c-0.443,0 -0.859,-0.148 -1.202,-0.429l-6.653,-5.447l-8.435,1.728c-0.133,0.028 -0.263,0.042 -0.392,0.042c-0.752,0 -1.433,-0.456 -1.735,-1.162l-3.36,-7.917l-8.265,-2.382c-0.861,-0.251 -1.435,-1.083 -1.363,-1.978l0.7,-8.575l-6.209,-5.953c-0.651,-0.622 -0.773,-1.624 -0.291,-2.383l4.606,-7.267l-2.735,-8.159c-0.284,-0.851 0.075,-1.794 0.854,-2.244l7.455,-4.299l1.372,-8.491c0.144,-0.888 0.898,-1.558 1.795,-1.594l8.596,-0.338l5.159,-6.884c0.358,-0.474 0.927,-0.758 1.521,-0.758c0.283,0 0.556,0.062 0.812,0.184l7.77,3.697l7.77,-3.696c0.256,-0.124 0.529,-0.186 0.812,-0.186c0.596,0 1.164,0.284 1.521,0.759l5.16,6.884l8.597,0.338c0.896,0.036 1.653,0.707 1.8,1.595l1.371,8.488l7.455,4.299c0.777,0.448 1.136,1.392 0.854,2.246l-2.734,8.157l4.605,7.266c0.48,0.761 0.357,1.764 -0.292,2.385l-6.209,5.954l0.7,8.575c0.074,0.895 -0.5,1.727 -1.364,1.978l-8.263,2.382l-3.362,7.918c-0.3,0.704 -0.981,1.159 -1.737,1.159c-0.128,0 -0.258,-0.014 -0.385,-0.041l-8.438,-1.729l-6.655,5.447c-0.342,0.279 -0.769,0.431 -1.206,0.431z" fill="#45ad38"></path><path d="M48.579,3.256v0c0.439,0 0.858,0.209 1.12,0.559l5.018,6.693l0.285,0.381l0.475,0.019l8.358,0.329c0.66,0.027 1.219,0.522 1.327,1.173l1.333,8.256l0.076,0.469l0.412,0.237l7.249,4.18c0.572,0.33 0.836,1.026 0.629,1.652l-2.659,7.933l-0.151,0.451l0.255,0.402l4.477,7.064c0.354,0.561 0.264,1.299 -0.216,1.757l-6.036,5.789l-0.343,0.329l0.039,0.474l0.681,8.339c0.054,0.659 -0.369,1.272 -1.003,1.456l-8.036,2.317l-0.457,0.132l-0.186,0.438l-3.268,7.697c-0.222,0.52 -0.723,0.856 -1.278,0.856c-0.094,0 -0.188,-0.01 -0.288,-0.031l-8.2,-1.68l-0.466,-0.095l-0.368,0.301l-6.471,5.296c-0.253,0.207 -0.559,0.316 -0.886,0.316c-0.327,0 -0.633,-0.109 -0.885,-0.315l-6.47,-5.296l-0.368,-0.301l-0.466,0.095l-8.213,1.682c-0.092,0.02 -0.187,0.03 -0.28,0.03c-0.552,0 -1.053,-0.337 -1.275,-0.856l-3.268,-7.698l-0.186,-0.438l-0.457,-0.132l-8.033,-2.316c-0.636,-0.185 -1.059,-0.798 -1.006,-1.457l0.681,-8.338l0.039,-0.474l-0.345,-0.331l-6.039,-5.79c-0.478,-0.457 -0.568,-1.194 -0.214,-1.753l4.479,-7.065l0.255,-0.402l-0.151,-0.451l-2.66,-7.932c-0.209,-0.627 0.055,-1.322 0.629,-1.653l7.249,-4.18l0.412,-0.237l0.076,-0.469l1.333,-8.256c0.106,-0.654 0.662,-1.148 1.321,-1.174l8.359,-0.329l0.475,-0.019l0.285,-0.381l5.014,-6.69c0.265,-0.351 0.685,-0.56 1.123,-0.56c0.208,0 0.408,0.046 0.597,0.136l7.554,3.594l0.43,0.204l0.43,-0.204l7.559,-3.596c0.187,-0.092 0.387,-0.137 0.594,-0.137M48.579,2.256c-0.347,0 -0.698,0.076 -1.026,0.234l-7.554,3.594l-7.555,-3.594c-0.329,-0.157 -0.68,-0.233 -1.027,-0.233c-0.735,0 -1.455,0.339 -1.922,0.958l-5.016,6.693l-8.359,0.329c-1.138,0.046 -2.087,0.887 -2.269,2.014l-1.333,8.256l-7.249,4.18c-0.986,0.568 -1.439,1.754 -1.078,2.836l2.66,7.933l-4.479,7.065c-0.61,0.961 -0.458,2.223 0.367,3.012l6.038,5.789l-0.681,8.338c-0.092,1.138 0.63,2.18 1.723,2.499l8.036,2.317l3.268,7.698c0.383,0.895 1.256,1.465 2.195,1.465c0.163,0 0.327,-0.017 0.492,-0.053l8.202,-1.68l6.47,5.296c0.442,0.361 0.979,0.542 1.518,0.542c0.54,0 1.077,-0.181 1.518,-0.542l6.471,-5.296l8.2,1.68c0.163,0.035 0.327,0.052 0.489,0.052c0.939,0 1.816,-0.567 2.198,-1.464l3.268,-7.698l8.036,-2.317c1.096,-0.318 1.816,-1.36 1.723,-2.499l-0.681,-8.338l6.038,-5.789c0.825,-0.789 0.977,-2.051 0.369,-3.013l-4.478,-7.065l2.659,-7.933c0.358,-1.081 -0.092,-2.267 -1.078,-2.836l-7.249,-4.18l-1.333,-8.256c-0.187,-1.126 -1.135,-1.967 -2.274,-2.013l-8.359,-0.329l-5.018,-6.693c-0.464,-0.619 -1.185,-0.959 -1.92,-0.959z" fill="#489325"></path><g fill="#ffffff"><path d="M29.504,40.061c-2.471,0 -4.437,-0.792 -5.9,-2.377c-1.463,-1.585 -2.194,-3.702 -2.194,-6.351c0,-2.893 0.776,-5.173 2.328,-6.839c1.552,-1.666 3.645,-2.499 6.278,-2.499c2.552,0 4.531,0.772 5.937,2.316c1.406,1.544 2.109,3.714 2.109,6.509c0,2.795 -0.788,5.034 -2.365,6.717c-1.577,1.683 -3.641,2.524 -6.193,2.524zM29.846,25.409c-1.333,0 -2.385,0.512 -3.157,1.536c-0.772,1.024 -1.158,2.43 -1.158,4.218c0,1.755 0.378,3.121 1.134,4.096c0.756,0.975 1.792,1.463 3.108,1.463c1.317,0 2.349,-0.508 3.096,-1.524c0.748,-1.016 1.121,-2.426 1.121,-4.23c0,-1.755 -0.37,-3.121 -1.109,-4.096c-0.739,-0.975 -1.751,-1.463 -3.035,-1.463zM53.177,22.507l-22.43,35.205h-3.486l22.405,-35.205zM50.032,58.005c-2.471,0 -4.437,-0.792 -5.9,-2.377c-1.463,-1.585 -2.194,-3.702 -2.194,-6.351c0,-2.893 0.776,-5.173 2.328,-6.839c1.552,-1.666 3.645,-2.499 6.278,-2.499c2.552,0 4.531,0.772 5.937,2.316c1.406,1.544 2.109,3.714 2.109,6.509c0,2.796 -0.788,5.034 -2.365,6.717c-1.577,1.682 -3.641,2.524 -6.193,2.524zM50.374,43.352c-1.333,0 -2.385,0.512 -3.157,1.536c-0.772,1.024 -1.158,2.43 -1.158,4.218c0,1.755 0.378,3.121 1.134,4.096c0.756,0.975 1.792,1.463 3.108,1.463c1.317,0 2.349,-0.508 3.096,-1.524c0.748,-1.016 1.121,-2.426 1.121,-4.23c0,-1.755 -0.37,-3.121 -1.109,-4.096c-0.739,-0.975 -1.751,-1.463 -3.035,-1.463z"></path></g></g></g><g fill="none" fill-rule="nonzero" stroke="none" stroke-width="1" stroke-linecap="butt" stroke-linejoin="miter" stroke-miterlimit="10" stroke-dasharray="" stroke-dashoffset="0" font-family="none" font-weight="none" font-size="none" text-anchor="none" style="mix-blend-mode: normal"><g transform="translate(129,145) scale(3.11111,3.11111)" id="overlay"><g><path transform="translate(18,18)" d="M-17.5,0c0,-9.66498 7.83502,-17.5 17.5,-17.5c9.66498,0 17.5,7.83502 17.5,17.5c0,9.66498 -7.83502,17.5 -17.5,17.5c-9.66498,0 -17.5,-7.83502 -17.5,-17.5z" fill="#f78f8f"></path><g fill="#c74343"><path d="M18,1c9.4,0 17,7.6 17,17c0,9.4 -7.6,17 -17,17c-9.4,0 -17,-7.6 -17,-17c0,-9.4 7.6,-17 17,-17M18,0c-9.9,0 -18,8.1 -18,18c0,9.9 8.1,18 18,18c9.9,0 18,-8.1 18,-18c0,-9.9 -8.1,-18 -18,-18z"></path></g></g><path transform="translate(17.9998,18) rotate(-45) scale(0.99999,0.99999)" d="M-9.9,2v-4h19.8v4z" fill="#ffffff"></path><path transform="translate(17.9998,18) rotate(-45) scale(0.99999,0.99999)" d="M-2,9.9v-19.8h4v19.8z" fill="#ffffff"></path></g></g></svg>