<?xml version="1.0"?>
<svg xmlns="http://www.w3.org/2000/svg" xmlns:xlink="http://www.w3.org/1999/xlink" version="1.1" viewBox="0 0 192 192"><g fill="none" fill-rule="nonzero" stroke="none" stroke-width="1" stroke-linecap="butt" stroke-linejoin="miter" stroke-miterlimit="10" stroke-dasharray="" stroke-dashoffset="0" font-family="none" font-weight="none" font-size="none" text-anchor="none" style="mix-blend-mode: normal"><path d="M0,192v-192h192v192z" fill="none" stroke="none"/><g stroke="none"><g id="surface1"><path d="M20,20h72v72h-72z" fill="#cddc39"/><path d="M128,112c0,11.04688 -8.95312,20 -20,20h-36c-11.04688,0 -20,-8.95312 -20,-20v-36c0,-11.04688 8.95312,-20 20,-20h36c11.04688,0 20,8.95312 20,20z" fill="#8bc34a"/></g></g><path d="M0,192v-192h192v192z" fill="none" stroke="none"/><path d="M3.84,188.16v-184.32h184.32v184.32z" fill="none" stroke="none"/><g stroke="none"><g id="IOS_copy"><path d="M172,132c0,22 -18,40 -40,40c-22,0 -40,-18 -40,-40c0,-22 18,-40 40,-40c22,0 40,18 40,40" fill="#43a047"/><path d="M150,113.6l-22.8,22.4l-10.8,-10.8l-8.4,8.8l19.2,19.2l31.2,-31.2z" fill="#dcedc8"/></g></g><path d="M92,172v-80h80v80z" id="overlay-drag" fill="#ff0000" stroke="none" opacity="0"/></g></svg>
